<svg xmlns="http://www.w3.org/2000/svg" xmlns:xlink="http://www.w3.org/1999/xlink" width="1366" zoomAndPan="magnify" viewBox="0 0 1024.5 576" height="768" preserveAspectRatio="xMidYMid meet" version="1.0"><defs><clipPath id="59a944772a"><path d="M 0 0.140625 L 1024 0.140625 L 1024 575.859375 L 0 575.859375 Z M 0 0.140625 " clip-rule="nonzero"/></clipPath><clipPath id="f146ceff17"><path d="M 241.929688 17.929688 L 782.417969 17.929688 L 782.417969 558.417969 L 241.929688 558.417969 Z M 241.929688 17.929688 " clip-rule="nonzero"/></clipPath></defs><g clip-path="url(#59a944772a)"><path fill="#ffffff" d="M 0 0.140625 L 1024 0.140625 L 1024 575.859375 L 0 575.859375 Z M 0 0.140625 " fill-opacity="1" fill-rule="nonzero"/></g><g clip-path="url(#f146ceff17)"><path fill="#8a0303" d="M 511.878906 66.632812 C 583.953125 66.632812 592.476562 66.867188 620.996094 68.167969 C 647.269531 69.351562 661.589844 73.730469 671.175781 77.519531 C 683.71875 82.371094 692.714844 88.289062 702.183594 97.757812 C 711.648438 107.222656 717.449219 116.21875 722.417969 128.761719 C 726.089844 138.230469 730.46875 152.550781 731.769531 178.941406 C 733.070312 207.464844 733.308594 215.984375 733.308594 288.058594 C 733.308594 360.132812 733.070312 368.652344 731.769531 397.171875 C 730.585938 423.445312 726.207031 437.765625 722.417969 447.351562 C 717.566406 459.898438 711.648438 468.890625 702.183594 478.359375 C 692.714844 487.828125 683.71875 493.625 671.175781 498.597656 C 661.707031 502.265625 647.386719 506.644531 620.996094 507.945312 C 592.476562 509.25 583.953125 509.484375 511.878906 509.484375 C 439.808594 509.484375 431.285156 509.25 402.765625 507.945312 C 376.492188 506.761719 362.171875 502.382812 352.585938 498.597656 C 340.039062 493.746094 331.046875 487.828125 321.578125 478.359375 C 312.109375 468.890625 306.3125 459.898438 301.339844 447.351562 C 297.671875 437.886719 293.292969 423.566406 291.992188 397.171875 C 290.691406 368.652344 290.453125 360.132812 290.453125 288.058594 C 290.453125 215.984375 290.691406 207.464844 291.992188 178.941406 C 293.175781 152.667969 297.554688 138.347656 301.339844 128.761719 C 306.195312 116.21875 312.109375 107.222656 321.578125 97.757812 C 331.046875 88.289062 340.039062 82.488281 352.585938 77.519531 C 362.054688 73.851562 376.375 69.472656 402.765625 68.167969 C 431.285156 66.867188 439.808594 66.632812 511.878906 66.632812 M 511.878906 17.992188 C 438.503906 17.992188 429.394531 18.34375 400.515625 19.648438 C 371.757812 20.949219 352.113281 25.566406 334.953125 32.191406 C 317.199219 39.054688 302.171875 48.289062 287.140625 63.316406 C 272.226562 78.347656 262.996094 93.378906 256.132812 111.128906 C 249.503906 128.289062 244.890625 147.933594 243.589844 176.695312 C 242.285156 205.453125 241.929688 214.683594 241.929688 287.941406 C 241.929688 361.316406 242.285156 370.425781 243.589844 399.304688 C 244.890625 428.0625 249.503906 447.707031 256.132812 464.867188 C 262.996094 482.621094 272.226562 497.648438 287.257812 512.679688 C 302.289062 527.710938 317.316406 536.941406 335.070312 543.804688 C 352.230469 550.433594 371.875 555.046875 400.632812 556.351562 C 429.394531 557.652344 438.625 558.007812 512 558.007812 C 585.375 558.007812 594.488281 557.652344 623.363281 556.351562 C 652.121094 555.046875 671.765625 550.433594 688.925781 543.804688 C 706.679688 536.941406 721.710938 527.710938 736.738281 512.679688 C 751.769531 497.648438 761 482.621094 767.863281 464.867188 C 774.492188 447.707031 779.109375 428.0625 780.410156 399.304688 C 781.710938 370.546875 782.066406 361.316406 782.066406 287.941406 C 782.066406 214.566406 781.710938 205.453125 780.410156 176.574219 C 779.109375 147.816406 774.492188 128.171875 767.863281 111.011719 C 761 93.257812 751.769531 78.230469 736.738281 63.199219 C 721.710938 48.167969 706.679688 38.9375 688.925781 32.074219 C 671.765625 25.445312 652.121094 20.832031 623.363281 19.527344 C 594.488281 18.34375 585.253906 17.992188 511.878906 17.992188 " fill-opacity="1" fill-rule="nonzero"/></g><path fill="#8a0303" d="M 511.878906 149.355469 C 435.308594 149.355469 373.296875 211.371094 373.296875 287.941406 C 373.296875 364.511719 435.429688 426.640625 512 426.640625 C 588.570312 426.640625 650.703125 364.628906 650.703125 287.941406 C 650.582031 211.371094 588.449219 149.355469 511.878906 149.355469 M 511.878906 378 C 462.175781 378 421.9375 337.761719 421.9375 288.058594 C 421.9375 238.351562 462.175781 198.113281 511.878906 198.113281 C 561.585938 198.113281 601.824219 238.351562 601.824219 288.058594 C 601.941406 337.644531 561.585938 378 511.878906 378 " fill-opacity="1" fill-rule="nonzero"/><path fill="#8a0303" d="M 688.453125 143.910156 C 688.453125 161.78125 673.898438 176.339844 656.027344 176.339844 C 638.15625 176.339844 623.601562 161.78125 623.601562 143.910156 C 623.601562 126.042969 638.15625 111.484375 656.027344 111.484375 C 673.898438 111.484375 688.453125 125.921875 688.453125 143.910156 " fill-opacity="1" fill-rule="nonzero"/></svg>