<svg width="200" height="200" viewBox="0 0 200 200" fill="none" xmlns="http://www.w3.org/2000/svg">
<path d="M23.3214 120.121C29.0056 119.063 34.6289 117.122 40.3828 114.689C46.1237 112.252 51.9864 109.301 57.958 106.08C69.8749 99.647 82.2618 92.1261 94.1178 85.5408C100.041 82.2504 105.822 79.1994 111.245 76.6532C116.668 74.1071 121.743 72.0701 126.126 70.76C130.508 69.4369 134.173 68.8754 136.68 68.919C137.938 68.9277 138.9 69.0757 139.601 69.2715C140.306 69.4674 140.745 69.7025 141.089 69.9418C139.274 69.3412 137.908 68.4141 137.172 67.8134C136.793 67.5044 136.554 67.278 136.415 67.1561C136.271 67.0299 136.228 67.017 136.245 67.1128C136.284 67.3043 136.554 67.9528 136.88 68.98C137.211 70.0028 137.599 71.3999 137.982 73.0799C138.752 76.4487 139.474 80.9272 140.049 86.0239C140.632 91.1293 141.08 96.8614 141.446 102.881C141.598 105.397 141.733 107.965 141.86 110.567C142.003 113.166 142.234 115.79 142.539 118.423C143.152 123.694 144.066 129.004 145.141 134.214C147.304 144.625 150.02 154.605 152.323 162.94C156.619 178.496 177.689 177.999 181.536 162.326C183.495 154.353 186.18 144.403 188.034 133.592C188.957 128.186 189.653 122.558 189.897 116.857C190.023 114.006 190.037 111.137 189.919 108.269C189.784 105.401 189.614 102.533 189.405 99.673C188.909 92.8397 188.2 86.0805 187.186 79.5563C186.167 73.0276 184.861 66.7472 183.051 60.7104C182.141 57.6898 181.105 54.7257 179.847 51.7921C178.59 48.8586 177.123 45.9512 175.256 43.0525C173.38 40.1624 171.099 37.2506 168.083 34.5304C165.084 31.8275 161.267 29.3249 156.806 27.7363C152.671 26.3087 148.462 25.486 144.358 25.164C140.254 24.8419 136.258 25.0118 132.423 25.521C124.741 26.5612 117.699 28.9071 111.027 31.8711C104.359 34.8525 98.0394 38.4956 91.9069 42.4867C85.7743 46.4822 79.8419 50.8389 74.0706 55.2958C62.5498 64.2139 51.6469 73.5674 41.8366 81.2233C36.9444 85.0491 32.3308 88.4439 28.1743 91.138C24.0264 93.8365 20.3182 95.8082 17.4325 96.9224C11.6873 99.1465 8.95835 105.793 10.3642 111.364C11.77 116.939 17.2628 121.248 23.3214 120.121Z" fill="black"/>
</svg>
