<svg width="200" height="200" viewBox="0 0 200 200" fill="none" xmlns="http://www.w3.org/2000/svg">
<path d="M29.613 112.521C29.8968 111.663 30.3304 110.446 30.9075 109.08C31.4814 107.711 32.1956 106.176 33.016 104.604C34.6472 101.463 36.7432 98.1604 38.8953 95.6121C39.9683 94.3395 41.0506 93.2572 42.0269 92.4743C42.9969 91.6852 43.8641 91.2111 44.4162 91.0677C44.9776 90.9117 45.1865 91.1019 44.9806 91.3484C44.7966 91.6041 44.2009 91.8287 43.811 91.9347C43.6675 92.0158 43.3868 92.0408 43.103 92.0159C42.8191 91.994 42.5384 91.9253 42.3544 91.8972C41.9645 91.8224 41.977 91.9784 42.2297 92.7207C42.4792 93.4443 42.919 94.7013 43.4087 96.3731C43.9078 98.0449 44.4598 100.119 45.0992 102.465C45.7417 104.81 46.4716 107.43 47.4135 110.24C48.3586 113.051 49.5127 116.061 51.119 119.199C52.7253 122.33 54.7964 125.618 57.6722 128.768C60.5293 131.909 64.2596 134.881 68.6949 137.008C72.7903 138.989 77.3972 140.205 82.0633 140.602C84.886 140.848 87.7743 140.792 90.647 140.364C93.5134 139.94 96.358 139.132 98.9936 137.981C101.632 136.837 104.053 135.355 106.152 133.708C108.254 132.062 110.044 130.259 111.557 128.447C114.589 124.797 116.573 121.157 118.132 117.804C119.676 114.442 120.79 111.317 121.75 108.509C122.705 105.712 123.503 103.226 124.217 101.261C124.919 99.2988 125.562 97.8671 125.902 97.2901C125.986 97.1466 126.045 97.0531 126.076 97.0157C126.083 97.0063 126.089 97.0001 126.092 97.0001C126.095 96.997 126.095 96.997 126.092 97.0001C126.089 97.0095 126.076 97.0313 126.055 97.0656C125.961 97.2029 125.687 97.5584 125.166 98.0106C124.648 98.4629 123.871 98.9994 122.973 99.4049C122.081 99.8198 121.095 100.082 120.325 100.181C120.393 100.175 120.437 100.172 120.456 100.172C120.459 100.172 120.462 100.175 120.462 100.175C120.462 100.175 120.462 100.175 120.459 100.175C120.456 100.178 120.443 100.178 120.425 100.178C120.356 100.185 120.185 100.182 119.947 100.153C119.467 100.104 118.709 99.9132 118.054 99.6169C117.393 99.3269 116.863 98.9588 116.619 98.7592C116.367 98.5533 116.382 98.5316 116.601 98.7936C116.819 99.0525 117.231 99.589 117.783 100.384C118.341 101.18 119.04 102.228 119.898 103.478C121.622 105.971 123.955 109.333 127.561 112.845C130.49 115.699 134.361 118.603 139.024 120.699C141.347 121.744 143.839 122.62 146.435 123.191C149.036 123.755 151.734 124.002 154.447 123.908C159.884 123.721 165.327 122.208 170.62 119.329C173.271 117.888 175.894 116.104 178.508 113.977C181.119 111.853 183.72 109.38 186.359 106.616C193.511 99.118 189.593 90.0976 179.266 89.243C175.829 88.9591 172.781 88.5599 170.146 88.1326C167.507 87.7053 165.274 87.2468 163.424 86.8039C159.716 85.9181 157.582 85.0665 156.556 84.5332C156.038 84.268 155.786 84.0872 155.673 84.0123C155.617 83.9718 155.592 83.9717 155.589 83.9686C155.592 83.9686 155.608 83.9748 155.633 83.9873C155.761 84.031 155.901 84.1838 155.598 83.9093C155.252 83.5912 154.385 82.5588 153.094 80.6593C152.445 79.7173 151.681 78.5758 150.751 77.2533C149.819 75.9308 148.721 74.4242 147.336 72.7867C145.951 71.1554 144.267 69.3839 142.152 67.6497C140.047 65.9217 137.486 64.2436 134.563 62.9336C131.644 61.6205 128.388 60.7035 125.106 60.2887C121.819 59.8676 118.525 59.9269 115.328 60.3386C112.312 60.716 109.28 61.5612 106.517 62.8182C103.747 64.0658 101.267 65.7065 99.1963 67.4812C97.1159 69.2591 95.4285 71.1618 94.0405 73.0238C92.6494 74.8922 91.5483 76.7261 90.6189 78.4852C88.7755 82.0098 87.5809 85.2537 86.5766 88.2168C85.5847 91.1799 84.8049 93.8717 84.0844 96.1892C83.3702 98.5004 82.7151 100.431 82.1724 101.747C81.9042 102.405 81.6671 102.908 81.505 103.232C81.3428 103.56 81.2554 103.706 81.296 103.694C81.3365 103.681 81.5143 103.51 81.845 103.282C82.1662 103.054 82.6497 102.777 83.1581 102.583C83.6634 102.384 84.1842 102.277 84.5117 102.262C84.677 102.253 84.7924 102.265 84.8423 102.281C84.8922 102.299 84.8767 102.324 84.7831 102.34C84.2996 102.371 84.4306 102.415 84.599 102.583C84.7924 102.749 84.9204 103.011 84.6552 102.895C84.412 102.792 83.8442 102.284 83.1362 101.276C82.4251 100.281 81.5891 98.8154 80.7065 97.0219C79.8206 95.2285 78.885 93.1106 77.8681 90.7963C76.8451 88.4788 75.7441 85.9679 74.4309 83.3323C73.1116 80.6998 71.5863 77.9301 69.5589 75.1167C67.5315 72.3189 64.9521 69.4275 61.4993 66.9947C59.7776 65.7876 57.85 64.7147 55.7758 63.885C53.7016 63.0522 51.4933 62.472 49.2631 62.1726C45.1241 61.5893 40.9259 62.026 37.3078 63.2175C33.6647 64.4028 30.6049 66.2554 28.0753 68.3203C25.5426 70.3944 23.4997 72.6932 21.7592 75.0637C20.0219 77.4404 18.5872 79.8982 17.352 82.3778C14.8942 87.3372 13.2192 92.3933 12.0434 97.0844C11.457 99.4299 11.0047 101.685 10.6709 103.797C10.3372 105.914 10.1189 107.886 10.016 109.735C9.41086 120.652 26.1945 122.904 29.613 112.521Z" fill="black"/>
</svg>
