<svg width="200" height="200" viewBox="0 0 200 200" fill="none" xmlns="http://www.w3.org/2000/svg">
<path d="M77.7355 80.7379C74.7302 82.2742 71.5388 84.3899 68.6731 86.8986C65.8127 89.4073 63.2781 92.2937 61.6642 95.4956C60.8624 97.0939 60.2934 98.7802 60.0917 100.539C59.89 102.292 60.071 104.118 60.7331 105.867C61.3952 107.62 62.5228 109.281 64.0953 110.776C65.673 112.276 67.6903 113.625 70.199 114.846C74.8699 117.132 79.6804 117.427 84.0927 116.32C88.5205 115.224 92.581 112.819 96.207 109.787C103.454 103.715 109.071 95.1229 112.149 88.3054C112.423 87.695 112.413 87.0124 112.159 86.4331C111.916 85.8538 111.42 85.3779 110.783 85.1607C109.821 84.8296 108.854 84.4933 107.892 84.1623C98.0795 80.7897 88.0291 78.1 77.9787 75.4102C77.5493 75.2912 77.1252 75.6067 76.9907 75.9947C76.8562 76.3826 76.9958 76.8946 77.4096 77.0653C86.9893 81.1258 96.569 85.1814 106.382 88.5539C107.349 88.885 108.311 89.221 109.273 89.5521C108.823 88.5021 108.368 87.4521 107.913 86.402C105.13 92.6247 99.7296 100.818 93.2327 106.223C89.9843 108.939 86.4876 110.951 82.9806 111.815C79.458 112.669 75.951 112.467 72.2267 110.672C70.0542 109.617 68.4403 108.505 67.2972 107.413C66.1489 106.322 65.4661 105.261 65.0781 104.232C64.6902 103.197 64.5816 102.173 64.7057 101.066C64.8298 99.9647 65.2023 98.7854 65.8127 97.575C67.023 95.1438 69.1852 92.609 71.7301 90.3848C74.275 88.1554 77.1924 86.221 79.8408 84.871C80.984 84.2865 81.434 82.8897 80.8546 81.7517C80.2701 80.6086 78.8735 80.1586 77.7355 80.7379Z" fill="black"/>
<path d="M73.184 53.0801C62.9991 60.3373 49.933 75.9067 43.0741 92.6247C39.6498 100.989 37.7618 109.658 38.6774 117.805C39.5826 125.942 43.4207 133.571 51.2313 139.344C58.742 144.925 67.0596 146.943 75.2634 146.296C83.4723 145.66 91.5519 142.448 98.9436 137.761C106.335 133.075 113.044 126.909 118.532 120.246C124.02 113.579 128.288 106.425 130.76 99.6544C134.102 90.4627 135.804 82.7192 136.114 76.1965C136.419 69.679 135.323 64.3252 132.897 60.1354C131.004 56.8508 128.288 54.3628 125.107 52.7179C121.926 51.0678 118.3 50.2299 114.436 50.023C106.703 49.6092 97.935 51.6525 89.1001 55.3095C71.4563 62.6288 53.5487 76.5378 44.388 91.2436C44.0517 91.7764 44.9724 92.392 45.3397 91.8748C55.1935 78.069 73.5668 65.6495 90.7088 59.432C99.2643 56.3181 107.52 54.787 114.084 55.3249C117.374 55.5887 120.219 56.3542 122.536 57.6008C124.853 58.8578 126.664 60.5649 128.029 62.9392C129.757 65.9548 130.76 70.1704 130.507 75.9379C130.259 81.7002 128.743 88.9521 125.609 97.8076C123.477 103.86 119.577 110.626 114.503 116.972C109.423 123.324 103.17 129.268 96.3625 133.778C89.5501 138.289 82.1946 141.361 74.8909 142.101C67.582 142.825 60.3145 141.304 53.3314 136.432C46.1622 131.393 42.6344 124.892 41.543 117.438C40.4619 110 41.9516 101.635 45.0294 93.3902C51.1693 76.8844 63.6043 60.9423 73.4478 53.4317C73.6392 53.2868 73.3857 52.9404 73.184 53.0801Z" fill="black"/>
<path d="M97.1531 23.4981C66.2984 28.8879 36.1316 48.7869 20.5879 74.8311C12.8341 87.8505 8.74778 102.489 10.3409 117.562C11.9186 132.63 19.2223 148.013 33.7315 162.321C49.1149 177.518 65.1552 185.329 80.8645 187.149C96.5789 188.991 111.766 184.827 125.37 176.789C138.989 168.75 151.109 156.859 161.061 143.001C171.003 129.138 178.782 113.29 183.629 97.2234C188.088 82.4297 190.095 69.8084 189.997 59.0545C189.898 48.3162 187.679 39.3934 183.557 32.2862C180.231 26.5394 175.668 22.0445 170.31 18.8323C164.946 15.6046 158.816 13.6338 152.236 12.682C139.067 10.7992 124.051 12.92 108.797 17.746C78.3144 27.424 46.8441 48.0627 28.533 71.0188C27.633 72.1516 29.5934 73.7861 30.5452 72.6999C49.4408 51.1662 81.2783 32.4879 110.742 24.2583C125.468 20.1305 139.584 18.6563 151.026 20.5546C156.757 21.496 161.801 23.26 166.021 25.8722C170.247 28.4896 173.682 31.9345 176.299 36.4761C179.522 42.0884 181.513 49.4853 181.622 59.1374C181.731 68.7792 179.936 80.6297 175.715 94.8596C171.215 110.052 163.911 125.197 154.6 138.408C145.289 151.619 133.977 162.874 121.547 170.395C109.107 177.921 95.6271 181.734 81.6197 180.306C67.6122 178.863 52.8754 172.164 37.9834 157.94C24.0846 144.641 17.2722 130.701 15.5653 116.962C13.8635 103.234 17.3137 89.5885 24.4467 77.0759C38.6766 52.0559 67.6847 31.8982 97.6342 26.1048C98.3376 25.9703 98.7773 25.2618 98.648 24.5687C98.5187 23.8756 97.8617 23.3739 97.1531 23.4981Z" fill="black"/>
</svg>
