<svg width="200" height="200" viewBox="0 0 200 200" fill="none" xmlns="http://www.w3.org/2000/svg">
<path d="M88.1529 10.088C83.6409 9.8674 79.9402 9.98015 76.7615 11.3869C73.5803 12.7912 71.0363 15.5313 68.9678 20.254C65.3087 28.6138 65.4705 40.3337 66.4386 52.1859C66.9263 58.1095 67.6223 64.0675 68.1713 69.6382C68.7227 75.2041 69.1222 80.39 69.0267 84.7157C68.9703 87.419 68.5487 91.5241 67.9703 96.4895C66.3847 110.158 63.6177 130.394 64.0441 148.523C64.2647 157.599 65.2573 166.154 67.7057 173.232C68.9335 176.769 70.5339 179.95 72.6539 182.602C74.7665 185.254 77.4355 187.369 80.6362 188.628C82.9939 189.562 85.6163 190.03 88.4519 189.998C91.4125 189.969 94.2947 189.307 97.0225 188.131C99.7527 186.952 102.336 185.261 104.774 183.166C109.652 178.965 113.982 173.137 117.823 166.164C125.484 152.221 131.189 133.647 134.317 114.111C137.437 94.5779 137.959 74.1036 135.077 56.4111C133.633 47.5636 131.337 39.4097 128.045 32.4101C126.398 28.9128 124.499 25.7022 122.325 22.847C120.146 20.004 117.725 17.4699 114.938 15.4724C112.303 13.5828 109.382 12.1639 106.26 11.284C103.135 10.4042 99.8115 10.0635 96.351 10.2767C95.5986 10.3331 93.932 10.3232 92.2875 10.3183C90.6332 10.3159 88.9764 10.3159 88.1456 10.3772C88.148 10.2816 88.1505 10.186 88.1529 10.088ZM88.1382 10.5659C88.9495 10.6762 90.5596 11.0266 92.1723 11.3722C93.7947 11.7178 95.3951 12.0609 96.2848 12.1761C99.5419 12.6246 102.439 13.4799 105.056 14.649C107.676 15.8229 110.017 17.3105 112.193 19.0776C114.482 20.9476 116.627 23.119 118.526 25.7046C120.433 28.278 122.129 31.2166 123.612 34.4664C126.579 40.9684 128.697 48.7155 130.006 57.215C132.631 74.2188 132.028 94.2103 128.915 113.239C125.812 132.264 120.183 150.347 112.936 163.473C109.323 170.039 105.306 175.347 101.133 178.928C99.0469 180.722 96.9293 182.085 94.8094 182.999C92.687 183.913 90.5645 184.386 88.3931 184.411C86.1947 184.433 84.3296 184.08 82.69 183.433C80.4745 182.553 78.6314 181.126 77.0065 179.114C75.389 177.105 74.0239 174.497 72.9333 171.404C70.7373 165.216 69.6663 157.121 69.3477 148.364C68.7031 130.833 70.9849 110.692 72.225 96.9258C72.6735 91.9065 72.9872 87.7401 72.9676 84.7403C72.9308 80.1131 72.3524 74.8365 71.6147 69.2412C70.8795 63.646 69.98 57.7395 69.2913 51.8991C67.9017 40.2234 67.3772 28.8197 70.5094 20.8962C72.3181 16.3254 74.4748 13.8794 77.2761 12.4898C80.0799 11.1002 83.6434 10.8061 88.1309 10.8551C88.1333 10.7595 88.1358 10.6615 88.1382 10.5659Z" fill="black"/>
<path d="M69.7582 54.2421C70.2092 49.5782 72.16 45.9877 75.0888 43.1766C78.0175 40.3704 81.9609 38.351 86.414 37.0079C90.8672 35.6624 95.8228 34.9982 100.727 34.883C103.18 34.8266 105.619 34.9076 107.976 35.111C110.334 35.3193 112.606 35.6379 114.741 36.0153C118.39 36.6672 121.632 37.5642 124.11 38.7455C126.593 39.9268 128.284 41.3655 128.948 43.0418C129.139 43.5246 129.968 43.2747 129.85 42.7674C129.357 40.6376 127.612 38.6843 125.078 37.0299C122.539 35.3781 119.184 34.0008 115.353 33.0841C113.116 32.545 110.716 32.1896 108.239 31.9935C105.758 31.7926 103.2 31.7386 100.629 31.8465C95.487 32.0621 90.2962 32.9248 85.6151 34.5448C80.9389 36.1624 76.7602 38.5397 73.6918 41.7944C70.6184 45.0466 68.6921 49.1885 68.4985 54.1588C68.4715 54.8549 69.692 54.9357 69.7582 54.2421Z" fill="black"/>
<path d="M71.824 82.4412C75.015 77.14 80.0098 71.633 86.0388 67.0132C92.0703 62.3909 99.1263 58.6584 106.474 56.8104C110.672 55.7713 114.937 55.2272 119.277 55.4257C123.615 55.6266 128.041 56.5727 132.492 58.5995C132.72 58.7024 132.982 58.499 133.083 58.3103C133.183 58.124 133.205 57.7932 132.992 57.6609C128.703 55.0385 124.147 53.4527 119.512 52.8351C114.88 52.2151 110.187 52.5631 105.695 53.7175C97.8077 55.7173 90.4601 59.8299 84.3159 64.8369C78.1717 69.8464 73.2186 75.7529 70.0815 81.4364C69.5448 82.4093 71.253 83.3921 71.824 82.4412Z" fill="black"/>
<path d="M69.7642 106.273C73.965 99.1364 80.8812 92.1148 88.9052 86.4558C92.9173 83.6251 97.2062 81.1326 101.569 79.1327C103.75 78.1328 105.948 77.2554 108.144 76.5177C110.338 75.78 112.526 75.1943 114.683 74.7433C121.55 73.2973 128.109 73.1355 133.996 75.3805C134.238 75.4712 134.498 75.2776 134.594 75.0668C134.687 74.8585 134.662 74.535 134.434 74.4149C128.621 71.3562 121.452 70.6259 114.137 72.0229C111.845 72.464 109.544 73.1062 107.252 73.888C104.958 74.6747 102.674 75.6133 100.424 76.6844C95.922 78.8288 91.5521 81.4978 87.5009 84.5221C79.4009 90.5707 72.5705 98.0311 68.4947 105.555C68.1099 106.263 69.355 106.967 69.7642 106.273Z" fill="black"/>
<path d="M66.8488 130.774C76.3016 117.152 87.2397 107.053 98.5061 101.575C104.138 98.835 109.849 97.2469 115.512 96.9233C121.179 96.6047 126.799 97.5434 132.288 99.8888C132.879 100.141 133.56 99.8644 133.81 99.2737C134.06 98.6855 133.786 98.0017 133.195 97.7517C121.537 92.8378 109.226 93.9162 97.5773 99.6805C85.9138 105.442 74.836 115.854 65.3244 129.725C64.746 130.568 66.2655 131.615 66.8488 130.774Z" fill="black"/>
<path d="M68.1895 156.674C77.0419 147.925 85.0733 141.886 92.4552 137.698C96.1486 135.605 99.6827 133.975 103.089 132.703C104.793 132.068 106.464 131.522 108.109 131.051C109.756 130.583 111.366 130.166 112.954 129.796C118.637 128.47 124.068 127.774 129.401 127.407C129.571 127.397 129.705 127.269 129.705 127.1C129.705 126.934 129.571 126.806 129.401 126.794C124.059 126.429 118.446 126.336 112.464 127.372C110.795 127.661 109.104 128.041 107.391 128.532C105.677 129.022 103.937 129.595 102.17 130.269C98.6362 131.615 94.9918 133.352 91.2273 135.578C83.6935 140.028 75.6842 146.432 67.0303 155.537C66.4102 156.189 67.5523 157.307 68.1895 156.674Z" fill="black"/>
<path d="M74.1664 179.604C81.389 172.007 87.8935 165.934 93.6971 161.483C96.5989 159.255 99.3242 157.437 101.873 156.032C104.429 154.645 106.767 153.608 108.951 152.954C111.12 152.305 113.135 152.035 115.059 152.184C116.98 152.336 118.813 152.905 120.57 153.956C118.987 152.665 117.191 151.79 115.179 151.363C113.169 150.937 110.951 150.961 108.576 151.452C106.182 151.947 103.628 152.917 100.966 154.371C98.2973 155.809 95.4813 157.665 92.5084 159.924C86.5627 164.444 79.9847 170.58 72.718 178.227C71.9582 179.028 73.4067 180.406 74.1664 179.604Z" fill="black"/>
</svg>
