<svg width="200" height="200" viewBox="0 0 200 200" fill="none" xmlns="http://www.w3.org/2000/svg">
<path d="M75.9855 42.9837C73.0397 44.9058 68.5329 48.7161 63.193 53.8627C57.8559 59.0064 51.7027 65.4809 45.5893 72.7288C39.8741 79.5331 34.1275 86.9545 28.9582 94.4696C23.7917 101.988 19.2052 109.602 15.8272 116.847C12.4549 124.098 10.2569 130.968 10.0181 137.189C9.90718 140.297 10.2996 143.266 11.3858 145.973C12.4663 148.679 14.2661 151.094 16.7427 152.962C20.2458 155.609 24.784 157.403 30.0984 158.623C35.4184 159.834 41.5318 160.46 48.2281 160.596C61.6092 160.869 77.3134 159.192 93.3019 156.078C109.285 152.962 125.538 148.406 139.971 142.882C154.41 137.348 167.012 130.897 175.841 123.76C180.604 119.89 184.317 115.81 186.504 111.283C187.289 109.645 188.011 107.72 188.608 105.61C189.202 103.5 189.663 101.214 189.876 98.877C190.086 96.5397 190.055 94.1455 189.577 91.8053C189.1 89.4737 188.156 87.142 186.421 85.2028C183.891 82.385 180.746 80.5453 177.493 79.2601C174.226 77.972 170.808 77.2015 167.441 76.5447C164.078 75.8935 160.765 75.3618 157.745 74.6623C154.728 73.9714 152.022 73.1069 149.863 71.9155C146.235 69.9194 142.237 67.2752 138.023 64.3521C133.809 61.4291 129.377 58.2273 124.827 55.1081C120.278 51.9888 115.614 48.955 110.911 46.3618C106.208 43.7714 101.471 41.6131 96.7454 40.2881C93.3475 39.3469 89.9439 38.875 86.6199 39.0286C83.2988 39.1821 80.063 39.9753 77.0689 41.508C74.0691 43.0406 71.328 45.3011 68.8969 48.3265C66.4629 51.3576 64.3332 55.1507 62.4935 59.8253C62.4452 59.9504 62.6414 60.0471 62.7096 59.9305C65.2914 55.6426 67.9529 52.3613 70.6172 49.9359C73.2871 47.5076 75.9485 45.938 78.5958 44.9968C81.2458 44.0585 83.8931 43.7401 86.6313 43.8765C89.3667 44.0187 92.1959 44.6273 95.1389 45.6026C99.2334 46.9447 103.518 49.0687 107.869 51.6704C112.222 54.2665 116.638 57.3288 121.017 60.5106C125.399 63.6895 129.743 66.988 133.977 70.056C138.211 73.1269 142.328 75.9675 146.306 78.245C149.357 79.9824 152.687 81.0344 156.036 81.859C159.386 82.6751 162.778 83.2551 165.974 83.9091C169.167 84.5631 172.159 85.2968 174.675 86.3176C177.2 87.3412 179.202 88.6122 180.706 90.3068C181.289 90.9608 181.769 91.9561 182.042 93.3323C182.318 94.6971 182.364 96.3918 182.193 98.1661C182.025 99.9432 181.65 101.797 181.164 103.5C180.68 105.204 180.08 106.762 179.52 107.925C178.087 110.924 175.164 114.325 170.953 117.723C163.168 124.038 151.137 130.317 137.213 135.742C123.28 141.179 107.439 145.813 91.8831 149.075C76.3324 152.336 61.0547 154.224 48.2991 154.201C41.9242 154.193 36.1832 153.704 31.3892 152.712C26.5924 151.722 22.768 150.212 20.189 148.333C18.4943 147.096 17.357 145.634 16.5807 143.834C15.8102 142.034 15.4291 139.862 15.4661 137.331C15.5229 132.273 17.3171 125.867 20.3852 118.912C23.4419 111.951 27.7355 104.424 32.6404 96.9433C37.5453 89.4566 43.0615 82.0154 48.5522 75.1599C54.3926 67.8324 60.1277 61.1048 65.0867 55.7137C70.0427 50.3254 74.2425 46.2679 76.8926 44.286C77.5949 43.7628 76.7191 42.506 75.9855 42.9837Z" fill="black"/>
<path d="M48.1531 133.638C55.6456 119.864 61.847 103.791 69.4219 89.38C73.5363 81.4981 77.429 73.7696 82.3993 66.971C82.8713 66.3255 81.8761 65.4639 81.3074 66.0241C75.1827 72.018 69.7944 79.3 65.5435 87.3441C57.8065 102.076 51.7586 118.204 44.5647 131.704C43.507 133.692 47.0783 135.614 48.1531 133.638Z" fill="black"/>
<path d="M85.2465 131.474C85.3204 120.592 89.5684 108.118 95.0107 96.4089C98.8664 88.0719 102.725 79.7663 106.237 72.7004C106.421 72.3336 105.83 71.9839 105.597 72.3222C101.104 78.8081 95.9434 86.4995 91.9825 95.0042C86.4521 106.944 82.0959 119.785 82.0703 131.46C82.0646 133.217 85.2351 133.231 85.2465 131.474Z" fill="black"/>
<path d="M134.044 123.766C134.491 112.432 138.534 102.261 142.589 91.396C142.831 90.7506 141.713 90.2957 141.434 90.9269C136.754 101.499 131.966 111.525 130.729 123.527C130.635 124.439 131.352 125.238 132.267 125.304C133.183 125.369 134.007 124.684 134.044 123.766Z" fill="black"/>
</svg>
