<svg width="200" height="200" viewBox="0 0 200 200" fill="none" xmlns="http://www.w3.org/2000/svg">
<path d="M10.0171 76.178C13.4031 99.7376 15.97 115.175 17.9416 140.967C18.0255 142.061 18.9215 143.001 19.9901 143.129C21.0529 143.296 22.1691 142.634 22.5583 141.571C26.8003 129.981 27.2763 117.804 27.7687 105.923C28.2439 94.0285 28.749 82.4296 32.5772 71.8984C30.7582 71.7793 28.9392 71.6602 27.1197 71.5411C27.2997 72.397 27.5358 74.1838 27.7731 76.4912C28.014 78.8119 28.2695 81.6884 28.5404 84.9135C29.0826 91.3593 29.687 99.1905 30.3753 106.797C31.0648 114.403 31.8343 121.771 32.7237 127.391C33.1724 130.21 33.6401 132.575 34.1991 134.441C34.4867 135.386 34.7801 136.197 35.231 136.996C35.4639 137.402 35.7357 137.812 36.1796 138.245C36.6155 138.659 37.2975 139.149 38.2712 139.312C38.772 139.396 39.3319 139.348 39.7872 139.198C40.2478 139.052 40.6012 138.831 40.8579 138.624C41.3688 138.196 41.566 137.852 41.7205 137.592C41.9997 137.067 42.0778 136.753 42.1718 136.422C42.3355 135.792 42.4356 135.152 42.542 134.349C42.7476 132.765 42.932 130.621 43.1261 127.991C43.5121 122.741 43.9246 115.607 44.4761 107.939C45.0272 100.28 45.7176 92.0917 46.653 84.8076C47.1197 81.1678 47.6487 77.753 48.2443 74.7661C48.8373 71.7793 49.5061 69.2116 50.2023 67.3189C48.0273 67.1468 45.8518 66.9748 43.6767 66.7983C45.9903 78.8472 45.7031 92.3784 46.2056 105.963C46.6874 118.515 47.8358 131.164 52.759 142.789C53.3458 144.174 54.8304 145.03 56.2669 144.858C57.7079 144.73 58.9829 143.583 59.2701 142.105C60.4882 135.845 61.4496 127.859 62.2504 119.344C63.0494 110.833 63.6816 101.802 64.2106 93.5432C64.7396 85.2841 65.1662 77.7883 65.5491 72.397C65.7397 69.7013 65.9219 67.5262 66.0905 66.1056C66.1721 65.3997 66.2577 64.8703 66.3031 64.6762C66.3084 64.6541 66.3124 64.6364 66.315 64.6276C66.3159 64.6232 66.3173 64.6188 66.3173 64.6188C66.3173 64.6188 66.3168 64.6188 66.3159 64.6232C66.3106 64.6364 66.2974 64.6894 66.2436 64.813C66.1827 64.9409 66.1064 65.1438 65.8059 65.5144C65.6506 65.6953 65.4287 65.9291 65.0559 66.1673C64.691 66.4012 64.1387 66.6306 63.5073 66.6659C62.7635 66.7145 62.1017 66.4894 61.6892 66.2555C61.2647 66.0173 61.0247 65.7835 60.854 65.6026C60.5266 65.232 60.4358 65.0291 60.3568 64.8879C60.2227 64.61 60.2152 64.5438 60.2024 64.5129C60.2002 64.5085 60.1997 64.5085 60.1997 64.5085C60.1997 64.5085 60.201 64.5085 60.2028 64.5173C60.2059 64.5305 60.2116 64.5526 60.2191 64.5791C60.2337 64.6409 60.2544 64.7335 60.2782 64.8438C60.3744 65.2982 60.5143 66.0791 60.6775 67.085C61.0058 69.1057 61.4355 72.066 61.9274 75.6529C62.9126 82.8355 64.1519 92.5505 65.3797 102.592C66.6076 112.633 67.8244 123.01 68.7654 131.516C69.2357 135.77 69.6368 139.559 69.9355 142.599C70.2341 145.63 70.43 147.946 70.4869 149.133C70.5275 149.98 70.8902 150.744 71.4567 151.291C72.0196 151.842 72.7913 152.173 73.5792 152.204C74.3668 152.239 75.1627 151.966 75.7675 151.463C76.3755 150.96 76.7982 150.227 76.9049 149.398C80.5006 121.369 80.6449 90.4196 82.7661 62.0555C80.7579 62.2188 78.7496 62.3819 76.7417 62.5452C83.6874 90.7681 84.1806 121.951 85.8779 148.476C85.9242 149.195 86.226 149.839 86.6923 150.316C87.1555 150.792 87.7895 151.105 88.4522 151.176C89.1144 151.247 89.8 151.083 90.3564 150.717C90.9145 150.351 91.3477 149.79 91.5445 149.111C95.3586 135.933 95.4993 119.212 95.2139 102.574C94.909 85.9635 94.1444 69.4321 95.783 57.2156C93.9953 57.3523 92.2081 57.4892 90.4204 57.6304C97.497 81.4282 100.241 107.582 105.314 131.066C105.461 131.741 105.855 132.311 106.383 132.686C106.91 133.061 107.576 133.233 108.218 133.162C108.862 133.096 109.476 132.787 109.91 132.306C110.348 131.83 110.612 131.19 110.612 130.497C110.603 118.709 109.851 99.989 110.387 82.6767C110.757 70.7205 112.007 59.4039 114.332 51.9434C112.4 52.0846 110.468 52.2257 108.536 52.3713C111.96 60.4539 113.667 69.013 114.583 78.1721C115.502 87.3312 115.615 97.0904 115.923 107.489C116.187 116.428 116.635 125.838 117.773 135.659C117.894 136.7 118.351 137.548 119.02 138.152C119.687 138.761 120.573 139.123 121.475 139.158C122.378 139.193 123.288 138.902 123.999 138.342C124.714 137.79 125.234 136.983 125.405 136.1C128.334 121.034 130.592 100.523 133.708 82.99C134.741 77.1574 135.874 71.669 137.051 66.8468C134.992 66.8953 132.933 66.9439 130.873 66.988C134.911 83.1885 133.837 100.051 134.362 117.363C134.581 124.391 135.093 131.481 136.231 138.553C136.406 139.634 136.921 140.486 137.647 141.068C138.368 141.655 139.306 141.968 140.236 141.937C141.167 141.906 142.081 141.531 142.762 140.896C143.447 140.265 143.904 139.383 143.987 138.487C144.543 132.478 145.025 124.678 145.58 116.207C146.136 107.741 146.796 98.6081 147.753 90.0048C149.055 77.903 150.555 66.7498 152.175 60.0702C150.266 59.9599 148.357 59.8539 146.448 59.748C149.37 84.737 150.806 112.642 151.071 137.406C151.08 138.293 151.45 139.131 152.051 139.736C152.647 140.349 153.48 140.715 154.332 140.751C155.184 140.79 156.046 140.495 156.693 139.939C157.344 139.387 157.784 138.584 157.875 137.649C158.263 133.665 159.838 116.825 161.411 101.352C162.198 93.6226 162.983 86.2327 163.624 81.0046C163.943 78.3972 164.231 76.3147 164.447 75.0926C164.5 74.7882 164.548 74.5412 164.585 74.3735C164.603 74.2897 164.619 74.228 164.628 74.1927C164.633 74.175 164.636 74.1662 164.636 74.1662C164.636 74.1662 164.634 74.1749 164.627 74.197C164.61 74.2455 164.585 74.3338 164.474 74.5632C164.415 74.6779 164.334 74.828 164.174 75.0485C164.008 75.2647 163.774 75.5691 163.257 75.9265C162.998 76.103 162.659 76.2838 162.229 76.4118C161.804 76.5397 161.284 76.6059 160.773 76.5485C160.261 76.5 159.776 76.3368 159.397 76.1383C159.014 75.9353 158.729 75.7059 158.517 75.4986C158.094 75.0794 157.923 74.7617 157.802 74.5323C157.685 74.2984 157.632 74.1441 157.594 74.0294C157.591 74.0205 157.589 74.0161 157.589 74.0161C157.589 74.0161 157.588 74.0161 157.59 74.0161C157.592 74.0249 157.596 74.0426 157.602 74.0647C157.614 74.1132 157.633 74.1926 157.655 74.2853C157.7 74.4794 157.757 74.7441 157.824 75.0706C157.958 75.728 158.126 76.6148 158.318 77.6869C158.704 79.8222 159.187 82.69 159.717 85.9901C160.777 92.5903 162.026 100.951 163.071 108.861C163.841 114.698 164.498 120.306 164.873 124.749C165.061 126.972 165.177 128.905 165.206 130.391C165.22 131.133 165.212 131.759 165.187 132.231C165.164 132.699 165.112 133.021 165.105 133.039C167.639 133.365 170.172 133.691 172.705 134.018C172.967 121.501 174.637 108.91 176.234 96.1992C177.296 87.7327 178.511 79.2707 179.779 70.8042C177.51 70.7601 175.241 70.7204 172.972 70.6807C174.376 81.309 175.821 91.9328 177.361 102.552C179.626 118.17 181.861 133.859 184.888 149.442C185.432 152.244 190.447 151.33 189.968 148.52C187.332 133.034 185.472 117.398 183.54 101.723C182.232 91.1078 181.005 80.4796 179.795 69.8425C179.7 69.0086 179.288 68.2497 178.685 67.7071C178.084 67.1644 177.286 66.8468 176.476 66.8247C175.666 66.8026 174.851 67.0806 174.223 67.588C173.591 68.0997 173.139 68.8321 172.99 69.7234C171.564 78.1986 170.2 86.7004 169.004 95.2374C167.233 107.895 165.369 120.729 165.004 133.828C164.976 134.817 165.334 135.747 165.949 136.449C166.56 137.155 167.436 137.627 168.362 137.742C169.288 137.865 170.255 137.631 171.024 137.102C171.797 136.581 172.379 135.77 172.603 134.808C172.772 134.08 172.839 133.414 172.886 132.672C172.93 131.94 172.941 131.141 172.93 130.263C172.906 128.516 172.788 126.447 172.602 124.113C172.229 119.459 171.575 113.763 170.795 107.847C169.74 99.8257 168.451 91.4167 167.34 84.7415C166.785 81.4061 166.275 78.5074 165.859 76.297C165.652 75.1897 165.468 74.2588 165.31 73.5132C165.231 73.1426 165.159 72.8161 165.089 72.5294C165.018 72.2338 164.958 71.9955 164.862 71.691C164.809 71.5278 164.74 71.3381 164.608 71.0734C164.47 70.8131 164.282 70.4689 163.843 70.0322C163.622 69.816 163.329 69.5822 162.937 69.3748C162.549 69.1718 162.055 69.0042 161.535 68.9557C161.015 68.9027 160.486 68.9645 160.051 69.0969C159.612 69.2293 159.263 69.4145 158.995 69.5954C158.459 69.966 158.206 70.2881 158.02 70.5308C157.84 70.7822 157.74 70.9675 157.66 71.1219C157.507 71.4307 157.439 71.6337 157.377 71.8146C157.262 72.1764 157.197 72.4587 157.128 72.7764C157.062 73.094 157 73.4338 156.937 73.8088C156.689 75.3 156.417 77.4442 156.115 80.1178C155.512 85.465 154.805 92.8903 154.114 100.66C152.732 116.19 151.411 133.083 151.084 137.04C153.352 137.12 155.62 137.199 157.888 137.283C157.248 112.316 155.376 84.2738 152.233 59.0466C152.143 58.323 151.802 57.6965 151.307 57.2465C150.814 56.7921 150.161 56.5185 149.493 56.4876C148.825 56.4479 148.146 56.6553 147.609 57.0524C147.07 57.4495 146.665 58.0363 146.505 58.7245C144.819 65.9733 143.406 77.1883 142.092 89.3916C141.19 98.0566 140.141 107.176 139.102 115.594C138.063 124.012 137.065 131.741 136.223 137.57C138.808 137.548 141.394 137.525 143.979 137.508C143.258 130.806 143.02 124.003 142.806 117.098C142.266 100.13 142.04 82.4958 137.016 65.3203C136.787 64.5394 136.346 63.9526 135.775 63.5511C135.206 63.1496 134.503 62.9422 133.807 62.9775C133.112 63.004 132.429 63.2687 131.897 63.7187C131.363 64.1643 130.973 64.7909 130.838 65.4659C129.83 70.4734 128.858 76.0721 127.832 81.9575C124.763 99.6184 121.246 119.975 117.841 134.481C120.385 134.627 122.929 134.777 125.473 134.922C124.752 125.362 124.557 116.15 124.243 107.22C123.881 96.8433 123.411 86.8504 122.023 77.2589C120.634 67.6719 118.313 58.4862 114.176 49.8212C113.585 48.5859 112.303 47.8801 111.06 48.0168C109.814 48.1183 108.69 49.0536 108.379 50.2493C106.156 58.8039 105.432 70.341 105.059 82.5134C104.52 100.073 105.263 118.894 105.254 130.497C107.02 130.312 108.786 130.122 110.551 129.933C105.573 106.854 102.887 80.5502 95.6948 56.0685C95.3317 54.8332 94.0893 53.9906 92.8491 54.1053C91.6058 54.1803 90.5051 55.1994 90.3321 56.4832C88.5757 69.5028 89.3452 86.14 89.5825 102.667C89.8402 119.167 89.5331 135.553 85.989 147.483C87.8778 147.695 89.7669 147.907 91.6557 148.114C90.0471 121.784 89.7268 90.274 82.6881 61.0981C82.5098 60.3613 82.0713 59.7392 81.4893 59.3289C80.9105 58.9142 80.1825 58.7156 79.4727 58.773C78.7619 58.8259 78.075 59.1392 77.5689 59.6421C77.0594 60.1407 76.7236 60.8202 76.6636 61.5878C74.4179 90.2343 74.1409 121.109 70.5103 148.564C72.6497 148.652 74.789 148.741 76.9283 148.829C76.8626 147.395 76.6698 145.065 76.3777 141.977C76.0856 138.893 75.6952 135.086 75.2372 130.811C74.3209 122.265 73.1354 111.87 71.9349 101.798C70.7345 91.7299 69.5203 81.9928 68.5466 74.7529C68.0595 71.1351 67.6338 68.1439 67.2949 66.0174C67.1246 64.9541 66.9786 64.1159 66.8436 63.4673C66.7734 63.1364 66.7139 62.8672 66.6155 62.5408C66.5595 62.3687 66.5118 62.1966 66.3424 61.8525C66.2453 61.6716 66.1372 61.4467 65.794 61.0584C65.6153 60.8687 65.3678 60.626 64.9354 60.3834C64.5154 60.1451 63.8466 59.9156 63.0957 59.9686C62.4414 60.0039 61.8661 60.2422 61.4783 60.4893C61.0825 60.7408 60.8377 60.9966 60.6594 61.2084C60.3135 61.6319 60.1913 61.9143 60.085 62.1482C59.8948 62.6026 59.8282 62.8937 59.7532 63.2114C59.6169 63.8246 59.522 64.482 59.421 65.307C59.2247 66.9394 59.0358 69.1674 58.8347 71.9116C58.4332 77.3868 57.9916 84.8694 57.448 93.102C56.9053 101.33 56.2612 110.304 55.4604 118.7C54.6615 127.096 53.6992 134.931 52.5508 140.795C54.721 140.57 56.8912 140.34 59.0619 140.115C54.6937 129.827 53.5188 118.016 53.0635 105.707C52.5517 92.3917 52.8738 78.556 50.3471 65.5144C50.0563 64.0099 48.742 62.8584 47.2773 62.7702C45.8165 62.629 44.3389 63.5643 43.8214 64.9894C42.9479 67.3983 42.2367 70.2528 41.6097 73.4602C40.985 76.6633 40.4534 80.2193 39.9906 83.9694C39.0654 91.4696 38.4164 99.764 37.9117 107.489C37.4074 115.215 37.0478 122.379 36.7085 127.546C36.54 130.122 36.3732 132.213 36.21 133.55C36.1319 134.208 36.0428 134.693 36.0097 134.817C36.0062 134.83 36.0062 134.834 36.0053 134.834C36.0062 134.834 36.0093 134.821 36.0172 134.799C36.0344 134.755 36.064 134.671 36.1584 134.499C36.2612 134.327 36.4063 134.053 36.8643 133.669C37.0946 133.484 37.4215 133.277 37.8552 133.136C38.2836 132.994 38.8166 132.95 39.2904 133.03C39.9928 133.149 40.4066 133.484 40.5778 133.652C40.6687 133.74 40.7141 133.797 40.7362 133.828C40.7472 133.842 40.7521 133.85 40.7521 133.85C40.7521 133.85 40.7485 133.846 40.7415 133.837C40.6748 133.736 40.4635 133.264 40.2588 132.593C39.8322 131.23 39.3619 129.041 38.9176 126.381C38.0215 121.043 37.1855 113.754 36.4262 106.214C35.6656 98.6698 34.9778 90.8608 34.3605 84.3885C34.0517 81.1502 33.7605 78.2471 33.4852 75.8647C33.2068 73.469 32.9571 71.6381 32.6783 70.3498C32.4074 69.1012 31.2938 68.166 30.0717 68.1086C28.8518 68.016 27.6333 68.8101 27.2208 69.9969C23.1503 81.6929 22.868 93.8564 22.5278 105.742C22.2057 117.637 21.8391 129.253 18.0736 139.961C19.6124 140.164 21.1513 140.367 22.6902 140.57C20.3422 114.623 17.5172 99.0493 13.8002 75.6089C13.4693 73.522 9.71654 74.0868 10.0171 76.178Z" fill="black"/>
</svg>
