<svg width="200" height="200" viewBox="0 0 200 200" fill="none" xmlns="http://www.w3.org/2000/svg">
<path d="M30.9474 138.434C37.8845 123.189 48.7777 105.599 61.2975 89.4893C67.5573 81.4311 74.2189 73.7391 80.9712 66.8766C87.7171 60.0141 94.5569 53.9906 101.082 49.2763C95.6586 46.2306 90.2347 43.1817 84.8108 40.136C84.0299 46.0265 82.2349 52.1956 79.6331 58.5981C77.0378 65.0005 73.6486 71.6233 69.8059 78.3756C62.1236 91.8966 52.6366 105.881 44.4067 120.166C39.2582 129.116 34.5601 138.178 31.1547 147.536C30.2119 150.124 30.2508 152.895 31.1127 155.367C31.9616 157.839 33.6626 160.01 35.8626 161.423C38.0562 162.848 40.7325 163.509 43.3375 163.263C45.9426 163.033 48.486 161.931 50.5499 159.919C59.2658 151.427 66.7246 142.173 73.5515 132.719C80.3783 123.261 86.5799 113.592 92.7425 104.167C98.902 94.7414 105.019 85.5589 111.603 77.0277C118.184 68.4933 125.218 60.6168 133.202 53.6862C126.482 49.4255 119.765 45.1678 113.045 40.9071C110.745 48.8389 107.151 56.6152 102.748 64.5081C98.3479 72.3977 93.1475 80.3781 87.824 88.7019C82.507 97.0289 77.0702 105.703 72.3105 115.086C67.5605 124.466 63.4876 134.588 61.0932 145.711C60.4614 148.647 60.9021 151.589 62.1625 154.1C63.4132 156.614 65.5225 158.691 68.0563 159.906C70.5868 161.131 73.5223 161.484 76.2699 160.891C79.0208 160.314 81.5934 158.824 83.5277 156.462C96.4136 140.705 106.477 123.624 116.538 107.439C126.576 91.2356 136.594 75.9618 148.786 63.3902C141.503 59.1586 134.219 54.9271 126.939 50.6923C124.24 59.8455 120.3 68.7623 115.598 77.705C110.897 86.6444 105.441 95.5936 99.8416 104.792C94.246 113.991 88.511 123.442 83.3398 133.457C78.1718 143.472 73.5644 154.071 70.3599 165.538C69.5661 168.379 69.7735 171.25 70.7618 173.793C71.7435 176.343 73.5417 178.569 75.8325 180.056C78.1168 181.553 80.8772 182.308 83.6054 182.179C86.3336 182.059 89.0424 181.093 91.3364 179.217C100.849 171.421 108.648 162.259 115.498 152.639C122.347 143.009 128.273 132.89 133.976 122.953C139.669 113.009 145.135 103.243 150.896 94.3072C156.657 85.3645 162.703 77.2772 169.423 70.5605C162.061 66.3775 154.703 62.1979 147.341 58.0149C145.738 64.3461 143.32 70.6092 140.304 76.9339C137.287 83.2586 133.671 89.6318 129.757 96.1315C121.945 109.153 112.906 122.629 105.599 137.728C101.633 145.945 98.2896 154.722 96.1932 164.128C95.448 167.475 95.9275 170.569 97.3078 173.174C98.6719 175.786 100.963 177.895 103.681 179.039C106.39 180.196 109.5 180.377 112.326 179.545C115.158 178.725 117.714 176.92 119.308 174.503C125.51 165.1 130.95 155.276 136.121 145.439C141.292 135.596 146.191 125.736 151.288 116.194C156.385 106.652 161.679 97.4274 167.644 88.8185C173.609 80.2128 180.245 72.2097 188.092 65.0912C185.746 62.9787 183.404 60.8662 181.058 58.7504C177.465 66.0018 173.884 73.2563 170.301 80.5141C168.959 83.2293 173.201 85.7987 174.989 83.3557C179.765 76.8204 184.538 70.2884 189.304 63.7466C189.758 63.1213 190.069 62.0034 189.988 60.9082C189.913 59.8131 189.45 58.7471 188.695 57.95C187.946 57.1465 186.913 56.6151 185.824 56.4725C184.735 56.3235 183.598 56.5601 182.27 57.4058C172.566 63.5814 163.905 71.066 156.048 79.3056C148.187 87.5484 141.12 96.5397 134.53 105.751C127.94 114.966 121.826 124.401 115.861 133.571C109.896 142.743 104.08 151.644 98.1113 159.858C105.816 163.315 113.521 166.772 121.226 170.229C123.154 163.12 125.947 156.187 129.33 149.178C135.525 136.296 144.069 123.423 152.334 109.714C156.462 102.851 160.509 95.762 164.08 88.2774C167.647 80.796 170.741 72.9064 172.877 64.4821C173.625 61.5239 173.314 58.5592 172.177 55.9769C171.053 53.388 169.07 51.1848 166.61 49.7947C164.161 48.3983 161.251 47.8216 158.452 48.1845C155.652 48.5312 152.947 49.7818 150.792 51.9397C142.212 60.5292 135.129 70.162 128.763 80.0443C122.396 89.933 116.735 100.097 111.137 109.873C105.544 119.651 100.013 129.044 94.071 137.4C88.1287 145.766 81.8007 153.07 74.6855 158.905C81.6776 163.464 88.6697 168.023 95.6618 172.585C98.2182 163.38 102.035 154.431 106.646 145.468C111.253 136.51 116.645 127.554 122.211 118.371C127.775 109.189 133.509 99.7765 138.713 89.8229C143.917 79.8758 148.595 69.3682 151.91 58.0149C152.775 55.0502 152.548 52.0433 151.46 49.4124C150.384 46.7749 148.414 44.5166 145.945 43.0942C143.483 41.662 140.544 41.0757 137.718 41.4548C134.896 41.821 132.175 43.1202 130.062 45.317C115.595 60.3672 104.741 77.3389 94.557 93.8569C84.3928 110.398 74.8798 126.517 63.6918 140.287C71.1699 143.874 78.6481 147.458 86.1263 151.041C87.8889 142.64 91.0091 134.582 95.0366 126.527C99.0543 118.478 103.979 110.459 109.163 102.245C114.341 94.0253 119.775 85.6107 124.696 76.6486C129.612 67.693 134.025 58.1671 136.97 47.7437C137.754 44.967 137.55 42.2033 136.581 39.7603C135.622 37.314 133.859 35.1917 131.633 33.7952C129.411 32.3922 126.738 31.7214 124.116 31.9158C121.495 32.1005 118.913 33.1115 116.813 34.9648C107.304 43.3502 99.2551 52.5845 92.0491 62.0845C84.8464 71.5909 78.4796 81.3727 72.3331 90.9666C66.1899 100.564 60.2702 109.973 54.046 118.786C47.8218 127.603 41.2995 135.813 33.9866 143.1C40.4538 147.228 46.9179 151.356 53.3818 155.483C55.9642 148.093 59.9398 140.048 64.6412 131.656C72.1485 118.222 81.3957 103.891 89.2465 89.0032C93.167 81.551 96.7407 73.9465 99.5369 66.1606C102.327 58.3778 104.345 50.4007 105.029 42.2454C105.227 39.932 104.754 37.9555 103.807 36.2577C102.868 34.5566 101.426 33.1407 99.7119 32.227C97.9979 31.3068 96.0182 30.8986 94.0807 31.0606C92.1463 31.2193 90.2413 31.9256 88.7573 33.1082C81.318 39.0441 74.0731 46.1529 67.1328 54.0069C60.1958 61.8609 53.5665 70.4633 47.4427 79.3833C35.1984 97.2297 24.9597 116.314 18.4893 133.243C15.8259 140.206 27.8596 145.219 30.9474 138.434Z" fill="black"/>
<path d="M39.031 117.847C34.456 116.269 29.881 114.691 25.3027 113.113C24.7325 115.744 24.159 118.371 23.5855 120.999C33.2637 122.35 42.9839 125.905 52.7981 130.775C62.6092 135.638 72.4915 141.81 82.4645 148.284C92.4407 154.758 102.508 161.533 112.766 167.582C123.027 173.628 133.486 178.968 144.363 182.457C145.643 182.869 147.059 182.843 148.349 182.435C149.638 182.036 150.801 181.236 151.637 180.176C152.48 179.12 152.992 177.804 153.092 176.457C153.193 175.109 152.898 173.725 152.084 172.368C149.418 167.922 145.919 163.499 141.784 159.002C137.65 154.511 132.874 149.956 127.635 145.352C117.163 136.15 104.834 126.741 92.1946 117.548C79.555 108.359 66.6076 99.3941 54.9724 91.1675C49.1564 87.0559 43.6709 83.1288 38.733 79.4643C33.7951 75.8062 29.4079 72.4042 25.8179 69.3877C23.9322 67.7968 21.3887 67.0417 18.9295 67.2459C16.4702 67.4338 14.105 68.6068 12.4687 70.4537C10.8195 72.2876 9.91551 74.7695 10.0062 77.232C10.0743 79.6977 11.1112 82.1407 13.1362 84.0621C28.1379 98.3056 46.0069 113.44 64.968 127.214C83.942 140.981 103.966 153.39 123.53 162.145C125.755 163.143 128.241 163.347 130.56 162.848C132.88 162.356 135.038 161.131 136.649 159.385C138.262 157.648 139.322 155.403 139.63 153.05C139.95 150.701 139.555 148.239 138.269 145.87C135.333 140.466 131.801 135.521 127.887 130.959C123.973 126.394 119.677 122.201 115.164 118.268C106.127 110.411 96.2122 103.558 86.4401 96.9511C76.668 90.3543 67.0351 84.0005 58.5688 77.4069C50.0894 70.8231 42.835 64.0155 37.5504 56.7415C33.6461 63.5457 29.7449 70.3499 25.8406 77.1541C26.9779 77.2772 29.1973 77.8249 31.9676 78.9071C34.7476 79.9795 38.0979 81.5542 41.7851 83.5338C49.179 87.49 57.9112 93.0404 67.0482 99.3391C76.1918 105.641 85.7663 112.692 95.0491 119.697C99.6922 123.202 104.261 126.695 108.674 130.088C113.093 133.474 117.344 136.769 121.378 139.84C125.668 143.103 129.712 146.107 133.415 148.78C137.122 151.453 140.475 153.789 143.443 155.733C146.489 157.732 149.748 158.348 152.804 157.829C155.866 157.33 158.714 155.662 160.648 153.238C162.602 150.831 163.619 147.688 163.451 144.594C163.302 141.496 161.999 138.444 159.861 136.351C146.674 123.458 131.96 112.491 117.419 101.753C102.877 91.0249 88.4554 80.4817 75.8482 68.7364C66.7274 60.2441 58.5688 51.1654 51.8229 41.3544C47.6011 46.5029 43.3793 51.648 39.1575 56.7966C52.9084 63.7433 66.5524 72.4009 80.0733 81.8037C93.5975 91.2065 107.012 101.345 120.409 111.266C131.672 119.619 142.737 128.062 153.513 136.179C156.067 138.104 159.067 138.953 162.002 138.8C164.935 138.664 167.809 137.488 169.999 135.531C172.202 133.584 173.706 130.872 174.185 127.972C174.681 125.075 174.192 121.994 172.611 119.288C166.869 109.435 159.903 100.062 152.237 91.0736C144.564 82.0855 136.185 73.4831 127.567 65.2338C110.336 48.7482 92.1168 33.6429 76.7847 20.1284C74.4324 18.058 71.6038 17.0374 68.7784 17.0017C65.953 16.9531 63.1212 17.922 60.9212 19.6943C58.7082 21.4537 57.1432 24.0036 56.573 26.7706C55.9865 29.5376 56.3624 32.5186 57.7815 35.1042C63.5781 45.6799 71.6589 54.6193 80.7117 62.5835C89.784 70.5476 99.8898 77.5721 110.125 84.1528C120.354 90.7269 130.723 96.8507 140.271 102.832C149.82 108.807 158.552 114.652 165.43 120.435C174.804 128.312 189.086 111.648 179.855 103.606C171.716 96.5137 162.326 90.0336 152.545 83.6441C142.769 77.2644 132.595 70.9915 122.969 64.5502C113.343 58.1186 104.267 51.512 96.7242 44.6462C89.1651 37.7837 83.2 30.6912 79.4059 23.4593C73.0715 28.4523 66.7371 33.442 60.4027 38.435C75.9293 52.5359 93.6462 67.6736 109.86 83.5403C117.963 91.4656 125.684 99.5659 132.547 107.744C139.409 115.915 145.407 124.165 150.111 132.333C156.478 126.702 162.845 121.074 169.212 115.442C158.548 107.332 147.435 98.7981 135.962 90.2928C122.324 80.1675 107.912 70.4277 93.1147 61.5725C78.314 52.7174 63.1439 44.737 47.8863 38.1239C45.3979 37.045 43.0326 36.9186 40.8715 37.5018C38.7039 38.0721 36.7403 39.3745 35.373 41.1501C33.9992 42.9192 33.2281 45.1452 33.2183 47.3841C33.1956 49.6263 33.9084 51.8813 35.2207 53.563C43.5672 64.278 52.9505 73.8168 62.6902 82.8793C76.1431 95.3829 90.3023 107.057 103.895 118.734C117.49 130.399 130.463 142.027 141.551 154.129C147.024 147.668 152.496 141.208 157.969 134.747C155.535 132.958 152.506 130.622 149.052 127.926C145.595 125.231 141.703 122.166 137.475 118.883C133.496 115.799 129.219 112.52 124.764 109.105C120.309 105.693 115.666 102.158 110.922 98.6003C101.429 91.4818 91.5271 84.2694 81.8457 77.6985C72.1514 71.1244 62.7032 65.1949 53.9095 60.5972C49.503 58.2967 45.2552 56.3236 41.1047 54.7748C36.9444 53.2325 32.904 52.0757 28.6077 51.6124C25.9443 51.3273 23.4397 51.8619 21.2721 53.0024C19.1012 54.1332 17.2705 55.9023 16.062 58.0311C14.8469 60.1566 14.2637 62.6352 14.3998 65.0783C14.5294 67.5245 15.3459 69.9481 16.9012 72.025C24.3793 82.0013 33.5844 90.1501 43.2497 97.4403C52.9278 104.721 63.1211 111.159 72.8511 117.474C82.5812 123.779 91.8381 129.961 99.637 136.467C103.541 139.714 107.076 143.038 110.161 146.47C113.245 149.904 115.873 153.439 118.012 157.149C122.924 151.722 127.839 146.298 132.751 140.874C115.063 133.483 95.791 122.318 77.3192 109.691C58.8377 97.0645 41.1144 82.9798 26.2715 69.7764C22.0432 74.669 17.8149 79.5616 13.5866 84.4541C21.8812 90.9667 32.7161 98.2698 44.7466 106.172C56.7641 114.065 69.9481 122.522 82.7043 131.105C95.4574 139.685 107.783 148.401 118.005 156.724C123.115 160.881 127.696 164.941 131.529 168.794C135.359 172.643 138.437 176.298 140.55 179.541C143.126 176.178 145.698 172.815 148.274 169.451C138.726 166.804 128.84 162.304 118.789 156.896C108.735 151.495 98.5128 145.203 88.1834 139.072C77.8475 132.942 67.4014 126.974 56.8095 122.243C46.2176 117.519 35.4637 114.023 24.5349 112.948C23.4073 112.834 22.3996 113.142 21.6155 113.738C20.8282 114.331 20.2709 115.222 20.083 116.188C19.8886 117.156 20.0668 118.19 20.5722 119.036C21.068 119.888 21.8844 120.552 22.8176 120.834C27.4542 122.221 32.0907 123.611 36.7273 125.001C38.6098 125.564 40.5085 124.22 41.0787 122.454C41.6457 120.685 40.8876 118.485 39.031 117.847Z" fill="black"/>
</svg>
