<svg width="200" height="200" viewBox="0 0 200 200" fill="none" xmlns="http://www.w3.org/2000/svg">
<path d="M139.351 91.584C134.726 87.8171 128.479 86.2009 122.07 85.9709C115.649 85.7596 109.004 86.953 103.41 89.2343C100.607 90.3843 98.0705 91.8015 95.9509 93.5171C93.8374 95.2327 92.1281 97.2591 91.1397 99.6461C90.1514 102.021 89.9774 104.774 90.8538 107.46C91.724 110.151 93.5267 112.743 96.2617 115.273C99.2764 118.07 102.851 119.786 106.611 120.544C110.372 121.309 114.307 121.147 118.223 120.327C126.055 118.679 133.875 114.434 140.451 109.032C147.021 103.612 152.355 97.0602 155.003 90.4091C156.314 87.0836 156.954 83.6897 156.557 80.389C156.171 77.1007 154.642 73.9368 151.957 71.4753C149.309 69.02 146.008 67.5903 142.496 66.9997C138.978 66.4092 135.217 66.6206 131.388 67.4038C123.73 68.9827 115.73 72.8552 108.743 77.9398C101.769 83.0369 95.808 89.3275 92.4327 96.0656C90.7544 99.4409 89.7226 102.953 89.6853 106.502C89.6356 110.039 90.6425 113.601 92.8616 116.734C95.149 119.991 98.1016 122.397 101.396 123.951C104.691 125.511 108.308 126.244 112.001 126.325C119.404 126.48 127.168 124.093 134.03 120.165C140.886 116.218 146.872 110.704 150.509 104.227C152.317 100.989 153.536 97.4891 153.878 93.8404C154.226 90.204 153.672 86.4185 152.044 82.7821C149.228 76.4667 145.213 71.6618 140.432 68.3549C135.659 65.0417 130.17 63.2267 124.451 62.6175C113.008 61.4116 100.644 64.8552 89.8407 70.8101C79.0497 76.8023 69.7817 85.312 64.7903 94.9095C62.3101 99.7082 60.9114 104.824 61.1414 110.002C61.359 115.174 63.286 120.333 67.0777 124.902C71.3605 130.092 76.5696 133.703 82.2323 135.848C87.8951 137.999 93.9928 138.695 100.14 138.247C112.442 137.34 124.986 131.919 135.491 123.857C145.977 115.776 154.468 105.023 158.291 93.0509C160.199 87.0711 160.908 80.7681 160.025 74.4465C159.149 68.131 156.662 61.8156 152.342 55.8669C147.96 49.8188 142.676 45.5608 136.908 42.9936C131.146 40.414 124.942 39.5251 118.745 39.9665C106.344 40.8616 93.9245 46.8911 83.5936 55.5251C73.2689 64.1839 64.9829 75.497 61.1912 87.4938C59.3078 93.4922 58.5619 99.6833 59.3762 105.75C60.1905 111.811 62.6023 117.728 66.8478 122.981C71.7957 129.141 78.1857 133.355 85.2843 135.835C92.383 138.316 100.184 139.111 108.196 138.583C124.221 137.52 141.16 131.254 155.525 121.93C169.871 112.581 181.707 100.193 187.071 86.3004C189.744 79.3571 190.745 71.9912 189.414 64.6439C188.097 57.2967 184.454 50.055 178.25 43.3728C169.088 33.4708 157.203 27.7024 144.249 25.3279C131.276 22.9472 117.203 23.8733 103.193 27.261C75.1958 34.0613 47.3792 50.6331 29.2845 71.6307C22.3537 79.6928 16.921 88.4822 13.6016 97.6508C10.2885 106.813 9.10755 116.379 10.7051 125.803C12.2901 135.226 16.6476 144.451 24.1067 152.979C31.5721 161.52 42.1144 169.402 56.2122 176.407C56.6473 176.625 57.1633 176.239 57.3622 175.873C57.5611 175.5 57.5984 174.859 57.1757 174.617C43.743 166.797 34.102 158.48 27.6125 150.095C21.1168 141.691 17.7539 133.25 16.7345 124.914C15.7213 116.578 17.0515 108.293 20.2403 100.15C23.4353 92.0129 28.5138 84.044 34.9722 76.5227C51.8113 56.8988 78.5586 40.8989 104.958 34.5275C118.148 31.32 131.227 30.512 142.9 32.6565C154.586 34.8134 164.83 39.8359 172.812 48.4202C178.201 54.2321 181.066 60.1063 182.135 65.9617C183.192 71.8172 182.446 77.741 180.19 83.6648C175.702 95.4876 164.942 107.087 151.54 115.801C138.157 124.541 122.182 130.409 107.718 131.366C100.482 131.857 93.6448 131.13 87.6526 129.041C81.6604 126.947 76.5074 123.534 72.4173 118.487C68.9798 114.229 67.1088 109.648 66.4374 104.793C65.7723 99.9382 66.3379 94.7976 67.9541 89.6135C71.174 79.2452 78.6768 68.8086 88.1002 60.8957C97.5049 52.9703 108.793 47.6121 119.242 46.8724C124.47 46.4994 129.48 47.2329 134.111 49.2842C138.736 51.3417 143.031 54.7232 146.81 59.8949C150.527 64.992 152.554 70.1823 153.299 75.3913C154.039 80.6003 153.48 85.8528 151.857 91.0121C148.625 101.312 141.017 111.183 131.425 118.586C121.853 126.002 110.341 130.919 99.6556 131.714C94.3098 132.118 89.188 131.515 84.5322 129.762C79.8702 128.003 75.662 125.125 72.0505 120.787C69.0668 117.175 67.7428 113.52 67.5501 109.704C67.3636 105.899 68.3768 101.871 70.4529 97.8247C74.5803 89.7378 82.9906 81.7876 92.8864 76.2927C102.77 70.7729 114.095 67.7146 123.805 68.7465C128.672 69.25 133.122 70.7418 136.958 73.3836C140.793 76.0316 144.069 79.8419 146.512 85.2623C147.724 87.9538 148.115 90.608 147.873 93.2871C147.637 95.96 146.735 98.664 145.268 101.306C142.353 106.589 137.132 111.531 131.071 115.031C125.017 118.543 118.142 120.6 112.125 120.476C109.11 120.42 106.319 119.836 103.882 118.692C101.44 117.536 99.3262 115.839 97.5858 113.396C96.0691 111.233 95.4288 109.014 95.4413 106.558C95.4537 104.103 96.1809 101.405 97.5609 98.6142C100.308 93.0198 105.679 87.183 112.081 82.4962C118.471 77.7969 125.887 74.2289 132.513 72.8552C135.826 72.159 138.928 72.0161 141.589 72.4574C144.255 72.8987 146.456 73.8933 148.234 75.5157C149.999 77.1567 150.844 78.9282 151.13 81.0603C151.404 83.1861 151.006 85.7037 149.943 88.42C147.829 93.859 143.043 99.9382 137.039 104.899C131.046 109.878 123.848 113.75 117.135 115.167C113.778 115.882 110.558 115.988 107.643 115.41C104.728 114.819 102.111 113.57 99.7862 111.444C97.505 109.355 96.2927 107.453 95.783 105.868C95.2795 104.277 95.3667 102.972 95.9075 101.598C96.4607 100.237 97.5608 98.8194 99.1894 97.4954C100.806 96.1714 102.925 94.953 105.343 93.9522C110.192 91.9507 116.24 90.8256 121.909 91.0058C127.584 91.1675 132.818 92.6593 136.199 95.4378C137.262 96.3081 138.835 96.1527 139.705 95.0836C140.569 94.0206 140.414 92.4542 139.351 91.584Z" fill="black"/>
</svg>
