<svg width="200" height="200" viewBox="0 0 200 200" fill="none" xmlns="http://www.w3.org/2000/svg">
<path d="M11.5698 79.9214C13.976 74.8079 19.9242 63.8377 26.9922 56.246C30.5081 52.4419 34.3154 49.5414 37.8117 48.5364C39.5664 48.0224 41.2165 47.9472 42.8665 48.3498C44.5164 48.759 46.2122 49.6625 48.0029 51.3354C48.3172 51.63 48.6019 51.9869 48.8638 52.4321C49.643 53.7252 50.1733 55.8204 50.3501 58.4819C50.5367 61.1369 50.3992 64.3321 50.0718 67.8185C49.4236 74.7981 48.0257 82.9266 47.1877 90.6657C46.7719 94.5385 46.4936 98.3197 46.5395 101.855C46.5886 105.394 46.9422 108.691 47.8948 111.64C48.3761 113.114 49.0112 114.502 49.8591 115.759C50.7037 117.013 51.7709 118.132 53.0575 119.016C54.3408 119.9 55.8336 120.538 57.4704 120.902C59.1105 121.268 60.8914 121.367 62.8131 121.219C64.1749 121.108 65.4223 120.65 66.5812 120.024C67.7433 119.393 68.8367 118.584 69.9171 117.638C72.0777 115.746 74.2089 113.3 76.4023 110.511C80.776 104.933 85.3788 97.9563 89.9816 91.6118C92.2765 88.4429 94.5714 85.4344 96.7942 82.871C99.0105 80.3077 101.171 78.1929 103.093 76.8114C104.049 76.1174 104.939 75.6099 105.718 75.2891C106.497 74.9683 107.152 74.8341 107.696 74.821C108.242 74.8144 108.694 74.9061 109.218 75.1451C109.738 75.3873 110.344 75.8096 111.035 76.5528C112.695 78.3468 113.778 80.442 114.482 82.9693C115.179 85.4868 115.454 88.4265 115.415 91.6642C115.35 98.1428 114.011 105.735 112.993 113.418C112.488 117.265 112.069 121.144 111.965 124.974C111.866 128.801 112.076 132.586 112.894 136.236C113.713 139.879 115.16 143.405 117.51 146.525C119.854 149.645 123.085 152.303 127.194 154.3C131.908 156.608 136.73 157.485 141.34 157.128C145.959 156.781 150.323 155.249 154.359 152.994C159.486 150.142 164.072 146.037 168.141 141.372C172.214 136.707 175.776 131.469 178.873 126.267C183.911 117.746 187.46 109.195 189.961 103.391C190.187 102.867 189.381 102.422 189.057 102.89C185.446 108.092 180.182 115.621 174.312 123.174C170.737 127.806 166.845 132.399 162.818 136.396C158.788 140.397 154.631 143.788 150.509 146.099C147.245 147.923 143.991 149.016 140.744 149.268C137.49 149.511 134.199 148.961 130.621 147.242C127.479 145.72 125.325 143.903 123.727 141.817C122.139 139.729 121.095 137.319 120.443 134.517C119.795 131.725 119.566 128.556 119.632 125.151C119.694 121.743 120.051 118.103 120.506 114.371C121.412 106.897 122.751 99.0824 122.758 91.7035C122.758 88.0108 122.421 84.4097 121.432 80.9952C120.453 77.5906 118.784 74.3627 116.201 71.6684C114.98 70.3884 113.618 69.3736 112.122 68.709C110.629 68.0379 109.012 67.7432 107.453 67.8087C105.888 67.8709 104.396 68.267 102.995 68.8694C101.593 69.475 100.271 70.2869 98.9909 71.2396C96.4374 73.1514 94.0247 75.6394 91.6381 78.4744C89.2582 81.3094 86.9142 84.4915 84.6062 87.7816C80.0001 94.3552 75.5282 101.381 71.4852 106.713C69.4686 109.378 67.5567 111.614 65.9002 113.114C65.0752 113.863 64.3157 114.423 63.6937 114.777C63.0651 115.13 62.5937 115.268 62.3089 115.297C60.8685 115.435 59.6802 115.372 58.7046 115.173C57.729 114.973 56.963 114.649 56.305 114.22C55.6502 113.785 55.0871 113.235 54.5797 112.518C54.0756 111.801 53.6303 110.91 53.2637 109.85C52.5238 107.732 52.1211 104.933 52.0229 101.737C51.9214 98.5357 52.1081 94.9412 52.4421 91.1797C53.1033 83.6502 54.3473 75.4856 54.8842 68.2179C55.1527 64.5808 55.2443 61.1663 54.9726 58.1087C54.6911 55.0576 54.0756 52.3339 52.6973 50.0914C52.2259 49.3352 51.6628 48.6411 50.9949 48.0453C48.7033 46.0025 46.2677 44.7291 43.7993 44.2118C41.3277 43.688 38.8757 43.9336 36.5906 44.7094C32.014 46.2808 28.0234 49.8197 24.4813 54.0362C17.4297 62.4856 12.2016 73.8913 10.0507 79.2601C9.71028 80.1113 11.1802 80.7497 11.5698 79.9214Z" fill="black"/>
<path d="M110.65 34.4463C96.9098 32.5672 83.766 36.7444 72.583 44.6701C61.3935 52.5957 52.1289 64.2436 45.971 77.3614C39.8197 90.4824 36.7522 105.09 38.0945 119.009C38.7688 125.966 40.5529 132.749 43.6367 139.045C46.7173 145.34 51.0975 151.141 56.9018 156.084C62.5162 160.874 68.337 163.974 74.2133 165.539C80.0863 167.11 85.9888 167.126 91.6686 165.909C97.3551 164.694 102.822 162.265 107.988 158.981C113.154 155.698 118.025 151.55 122.546 146.843C131.588 137.421 139.236 125.737 144.863 113.961C150.487 102.173 154.105 90.3285 154.933 80.3339C155.028 79.1554 155.084 77.9997 155.093 76.8703C155.156 70.8107 154.566 65.6709 153.362 61.294C152.164 56.9236 150.33 53.3094 147.944 50.4417C145.564 47.5706 142.65 45.4853 139.478 44.0776C136.299 42.6634 132.871 41.8973 129.303 41.5274C122.536 40.8301 115.216 41.5798 107.7 42.516C100.183 43.4589 92.474 44.6079 84.9347 44.7552C84.8234 44.7585 84.7283 44.8371 84.7218 44.9484C84.7152 45.0597 84.8004 45.1513 84.9117 45.1644C92.4314 46.1302 100.38 46.1204 107.923 46.1401C115.465 46.1564 122.605 46.2186 128.501 47.2858C131.614 47.8457 134.371 48.6935 136.698 49.9048C139.033 51.1194 140.944 52.671 142.535 54.7662C144.123 56.8647 145.41 59.5524 146.294 63.1469C147.178 66.7349 147.639 71.2199 147.548 76.7688C147.534 77.7116 147.482 78.697 147.4 79.7184C146.7 88.397 143.387 99.6029 138.126 110.766C132.872 121.939 125.686 133.106 117.393 141.952C113.249 146.378 108.833 150.221 104.266 153.216C99.699 156.218 94.9914 158.369 90.238 159.466C85.4846 160.563 80.6885 160.631 75.7878 159.423C70.8871 158.215 65.8522 155.714 60.7158 151.521C55.4419 147.209 51.4446 142.158 48.5507 136.573C45.6567 130.991 43.8726 124.873 43.0934 118.466C41.5286 105.656 44.0199 91.7067 49.5721 78.9949C55.121 66.2831 63.7176 54.8219 74.2262 46.9224C84.7381 39.0262 97.1325 34.6624 110.45 36.0766C110.898 36.1257 111.298 35.8016 111.35 35.3597C111.406 34.9177 111.095 34.5085 110.65 34.4463Z" fill="black"/>
</svg>
