<svg width="200" height="200" viewBox="0 0 200 200" fill="none" xmlns="http://www.w3.org/2000/svg">
<path d="M72.6921 96.7072C72.6491 96.7563 72.4277 97.242 72.1572 97.8506C71.8866 98.4655 71.5423 99.2463 71.1795 100.132C70.4602 101.915 69.6487 104.067 69.0707 106.594C68.7941 107.866 68.5667 109.243 68.5359 110.885C68.5298 112.52 68.6527 114.482 69.6917 116.916C70.2143 118.115 71.0136 119.419 72.151 120.599C73.2823 121.78 74.7455 122.782 76.2703 123.415C77.795 124.067 79.3321 124.362 80.7093 124.442C82.0926 124.522 83.3346 124.405 84.472 124.208C87.6445 123.673 90.6694 122.136 92.9012 120.107C95.1576 118.091 96.6763 115.705 97.703 113.369C98.7236 111.014 99.2831 108.659 99.5413 106.329C99.7996 103.999 99.7565 101.693 99.4184 99.3877C99.0864 97.0821 98.4654 94.7827 97.4325 92.4956C96.3935 90.2146 94.9301 87.9151 92.7475 85.837C90.5833 83.7712 87.5708 81.9574 84.0663 81.1889C80.568 80.3835 76.8114 80.7032 73.5651 81.7791C71.3395 82.5046 69.1752 83.6789 67.3369 85.1852C65.4863 86.6916 63.9739 88.5114 62.855 90.3866C60.6047 94.1801 59.7931 98.0228 59.5656 101.552C59.3566 105.106 59.7378 108.469 60.4817 111.746C61.2379 115.017 62.3692 118.195 63.8694 121.269C65.3757 124.344 67.2448 127.307 69.5934 130.08C71.9543 132.84 74.8008 135.441 78.4098 137.519C81.9943 139.585 86.4702 141.11 91.4196 141.22C96.3627 141.362 101.552 139.966 105.942 137.433C109.335 135.539 112.428 133.092 114.961 130.092C117.5 127.104 119.437 123.556 120.544 119.837C121.656 116.111 121.945 112.262 121.564 108.659C121.183 105.044 120.169 101.663 118.718 98.5945C115.791 92.4648 111.223 87.4848 105.444 83.8881C99.6828 80.3221 92.477 78.1763 84.7056 78.6005C80.4326 78.8219 76.0675 79.689 71.776 81.7671C69.6488 82.8062 67.5644 84.1587 65.6831 85.8187C63.7956 87.4726 62.1294 89.4337 60.8014 91.5487C59.4734 93.6576 58.4835 95.9141 57.8256 98.1274C57.1616 100.347 56.8174 102.523 56.6944 104.589C56.4608 108.733 57.0571 112.41 57.9916 115.73C58.9446 119.05 60.2665 122.038 61.8466 124.823C63.4267 127.608 65.2711 130.184 67.3923 132.588C69.5196 134.986 71.9113 137.212 74.7026 139.197C77.4939 141.177 80.6909 142.942 84.5028 144.184C91.4134 146.501 98.9265 147.086 106.009 145.549C113.098 144.048 119.517 140.452 124.392 135.736C129.305 131.02 132.766 125.278 134.912 119.191C137.052 113.092 137.894 106.587 137.476 100.015C137.181 95.3483 136.234 90.7679 134.654 86.4764C133.08 82.1788 130.885 78.1887 128.241 74.678C122.935 67.6137 115.994 62.5538 108.727 59.203C105.259 57.6045 101.681 56.3933 98.0535 55.5264C94.8011 54.7456 91.5979 54.2292 88.3455 54.0263C85.0992 53.8295 81.7975 53.9402 78.416 54.5366C75.0529 55.1269 71.5854 56.2335 68.3207 58.0103C65.056 59.7748 62.0372 62.2218 59.6947 65.0438C57.3276 67.8597 55.6431 70.983 54.5549 73.9957C53.4543 77.0267 52.9133 79.9471 52.6919 82.683C52.2862 88.1734 53.0547 92.9812 54.2475 97.4817C55.471 101.976 57.18 106.163 59.1905 110.153C61.201 114.144 63.5066 117.919 66.0089 121.454C68.5174 124.989 71.2043 128.278 74.0878 131.266C76.9836 134.248 80.0207 136.947 83.6543 139.277C90.8047 143.735 98.5391 146.268 106.083 146.803C113.639 147.362 120.863 145.991 127.356 143.464C134.777 140.556 141.534 136.56 147.872 131.74C154.187 126.907 160.07 121.208 165.13 114.549C170.172 107.903 174.384 100.273 176.843 91.6286C178.066 87.3125 178.835 82.7507 178.982 77.992C179.124 73.2456 178.632 68.2962 177.316 63.3654C176.24 59.2153 174.685 55.225 172.674 51.5114C168.537 43.7893 162.659 37.1863 155.957 32.3538C149.244 27.4906 141.829 24.3672 134.476 22.6088C127.098 20.8504 119.751 20.4015 112.594 20.8196C105.431 21.2377 98.4408 22.5289 91.6593 24.4164C78.1025 28.2221 65.3511 34.3765 53.8662 41.7974C48.1238 45.5171 42.701 49.575 37.684 53.9464C32.6733 58.3239 28.0498 63.0088 23.9858 68.1426C21.0654 71.8561 18.4525 75.8278 16.2945 80.1193C14.1426 84.4046 12.4457 89.0342 11.462 93.9774C9.33468 104.429 9.48221 114.722 12.212 124.165C14.8988 133.603 20.1801 141.89 26.7648 148.241C33.3495 154.629 41.1087 159.234 49.2673 162.511C57.4383 165.782 66.0642 167.756 74.8623 168.715C83.6666 169.662 92.6554 169.576 101.576 168.5C110.504 167.418 119.369 165.346 127.897 162.149C136.424 158.939 144.645 154.611 152.102 148.789C159.536 142.972 166.262 135.57 171.076 126.403C174.175 120.538 176.486 114.451 177.937 108.272C179.388 102.099 179.966 95.8404 179.683 89.7475C179.413 83.6546 178.282 77.7338 176.456 72.1881C174.63 66.6424 172.115 61.4779 169.108 56.7684C161.952 45.6032 152.213 37.0079 141.355 30.8597C130.467 24.7422 118.336 20.998 105.665 20.1618C99.3323 19.7561 92.8582 20.1003 86.4087 21.3422C79.9592 22.5842 73.5282 24.7423 67.4231 27.9333C61.3117 31.118 55.5447 35.354 50.5093 40.5431C45.4616 45.7261 41.1579 51.8435 37.8071 58.6557C33.0115 68.4745 29.8698 78.404 28.4003 88.1612C26.9186 97.9123 27.1276 107.491 28.8553 116.461C30.5829 125.438 33.8292 133.787 38.219 141.202C42.6088 148.629 48.13 155.115 54.395 160.562C64.1707 169.078 75.84 174.993 88.2041 178.116C100.58 181.239 113.67 181.583 126.384 179.05C139.093 176.53 151.402 171.119 162.272 162.973C173.16 154.826 182.591 143.987 190 130.645C178.374 140.556 166.6 146.735 155.527 150.172C144.43 153.615 134.008 154.353 124.614 153.351C115.213 152.342 106.821 149.576 99.7197 145.77C92.6185 141.958 86.8267 137.113 82.5476 131.856C79.8055 128.463 77.7089 124.878 76.258 121.196C74.8008 117.5 73.9709 113.713 73.7557 109.735C73.5467 105.751 73.9464 101.552 75.1637 96.9284C76.3872 92.3049 78.4468 87.2449 81.7177 81.6869C83.1809 79.3199 84.6443 77.6968 86.0706 76.4733C87.5032 75.2559 88.9172 74.4137 90.4604 73.7558C91.9975 73.1041 93.6821 72.6431 95.5696 72.3911C97.451 72.139 99.5414 72.1019 101.749 72.3355C106.157 72.7844 111.026 74.3891 115.127 76.8176C119.253 79.2277 122.493 82.394 124.349 85.3513C125.149 86.6055 125.733 87.8167 126.163 89.0033C126.587 90.196 126.864 91.3706 126.993 92.6556C127.122 93.9467 127.116 95.3669 126.839 97.1007C126.557 98.8284 126.003 100.869 124.946 103.304C124.208 105.216 122.72 107.571 120.076 110.098C117.463 112.619 113.738 115.213 109.262 117.427C104.792 119.646 99.5905 121.491 94.1801 122.72C88.7697 123.962 83.1564 124.602 77.8935 124.583C72.6245 124.577 67.7181 123.901 63.691 122.745C59.6455 121.595 56.5346 119.997 54.3889 118.318C52.2308 116.603 50.9028 114.955 49.9129 112.508C48.9661 110.055 48.3635 106.507 49.2243 101.066C49.3718 99.9779 49.7592 98.6008 50.5155 96.9776C51.2717 95.3668 52.3907 93.5286 53.8908 91.6043C55.9566 88.9298 58.7848 86.1261 62.1971 83.5254C65.6093 80.9124 69.5872 78.4898 73.8664 76.424C82.4308 72.2617 92.2126 69.5874 100.882 68.7697C105.21 68.3455 109.255 68.3761 112.698 68.7757C116.141 69.1692 118.97 69.9317 120.986 70.8048C123.021 71.6778 124.22 72.6 124.989 73.3808C125.763 74.1924 126.237 74.838 126.962 76.1475C127.301 76.787 127.743 77.5553 128.29 78.6128C128.647 79.0494 129.114 79.7195 129.569 80.7155C130.03 81.7053 130.479 83.0088 130.799 84.5827C131.451 87.7245 131.567 91.9423 130.762 96.3076C129.969 100.673 128.26 105.161 125.782 108.788C123.323 112.428 120.095 115.176 116.873 116.375C114.057 117.451 111.481 117.679 109.102 117.224C106.716 116.744 104.392 115.656 101.73 113.289C101.398 112.865 100.322 111.635 99.197 109.889C98.0534 108.155 96.8115 105.917 95.7233 103.501C94.6289 101.085 93.6758 98.4841 92.9995 96.0371C92.3171 93.6024 91.9237 91.3027 91.8561 89.6304C91.8192 88.7942 91.8621 88.118 91.9482 87.6938C92.0343 87.2634 92.1696 87.0913 92.2495 87.2573C92.3294 87.4171 92.354 87.9335 92.1142 88.7697C91.8806 89.5997 91.3519 90.7556 90.4727 91.8684C89.6058 92.9936 88.4008 94.008 87.3064 94.6474C86.1998 95.2992 85.259 95.5944 84.8041 95.742C84.3307 95.8834 84.3307 95.9078 84.7979 96.0185C85.2652 96.1291 86.1874 96.332 87.5154 96.7255C88.8065 97.1128 89.9254 97.5433 90.8538 97.9737C92.8397 98.8898 93.8235 99.7995 94.3215 100.39C94.5797 100.703 94.758 100.968 94.9363 101.349C95.1085 101.73 95.2868 102.247 95.3974 103.101C95.5511 104.306 95.4466 105.259 95.3359 105.806C95.2314 106.366 95.1454 106.471 95.4221 106.311C95.668 106.157 96.375 105.831 96.8853 105.843C97.1312 105.843 97.2911 105.905 97.2296 105.96C97.1681 106.022 96.8791 106.065 96.3012 105.966C96.6701 106.114 96.8852 106.243 96.9959 106.335C97.1066 106.421 97.1128 106.47 97.0513 106.47C96.9283 106.47 96.5595 106.262 96.1721 105.954C95.7848 105.641 95.3852 105.228 95.1023 104.896C94.8134 104.571 94.6473 104.325 94.6166 104.442C94.5674 104.552 94.6719 105.063 94.5612 106.237C94.5059 106.815 94.3768 107.553 94.1063 108.401C93.8357 109.243 93.4054 110.196 92.8152 111.094C92.2311 111.992 91.4871 112.828 90.7309 113.461C89.9685 114.107 89.2062 114.543 88.6159 114.801C88.0196 115.06 87.5892 115.139 87.4109 115.133C87.2265 115.127 87.2818 115.041 87.5892 114.955C87.454 114.777 87.4478 114.537 87.6937 114.457C87.9212 114.346 88.1794 114.445 88.1548 114.057C88.1548 113.861 88.1118 113.51 88.1302 112.981C88.1487 112.465 88.2593 111.752 88.5421 111.1C88.8065 110.449 89.243 109.907 89.5197 109.747C89.655 109.661 89.7473 109.667 89.7411 109.754C89.735 109.833 89.6304 109.999 89.3968 110.227C89.532 110.282 90.4911 110.037 91.3396 110.19C92.2065 110.313 92.7291 110.707 92.6184 110.805C92.5324 110.922 91.936 110.713 91.2105 110.135C90.4788 109.569 89.6242 108.659 88.8864 107.614C88.1363 106.575 87.497 105.401 87.0666 104.386C86.6239 103.378 86.4087 102.517 86.2919 102.216C86.1566 101.89 86.1443 102.24 85.4926 103.206C85.1729 103.673 84.6627 104.239 84.0355 104.706C83.4084 105.173 82.6767 105.505 82.1172 105.634C81.6438 105.72 80.4142 105.862 79.1845 105.511C77.9426 105.192 76.9343 104.472 76.4917 103.95C76.0306 103.409 76.0059 103.108 76.0919 103.095C76.1903 103.083 76.3872 103.323 76.5471 103.661C76.7069 103.999 76.8236 104.417 76.8912 104.737C76.9712 105.056 76.9897 105.259 77.1003 105.198C77.2172 105.155 77.4569 104.798 78.0349 104.362C78.5944 103.919 79.5474 103.513 80.2298 103.489C80.4635 103.476 80.9061 103.433 81.5763 103.483C82.2464 103.538 83.1625 103.698 84.1462 104.128C85.1299 104.546 86.1443 105.241 86.8883 106.034C87.6445 106.827 88.1363 107.669 88.4253 108.34C88.9787 109.723 88.8802 110.374 88.8495 110.534C88.8249 110.614 88.7942 110.59 88.7758 110.491C88.7574 110.399 88.745 110.227 88.7512 110.012C88.7696 109.139 89.0525 107.633 89.3906 106.274C89.5628 105.591 89.7411 104.933 89.9071 104.331C90.0793 103.722 90.2267 103.224 90.4112 102.61C93.3193 92.717 79.1232 88.6407 72.6921 96.7072Z" fill="black"/>
</svg>
