<svg width="200" height="200" viewBox="0 0 200 200" fill="none" xmlns="http://www.w3.org/2000/svg">
<path d="M74.5251 138.618C83.4691 126.921 92.2508 115.404 100.936 104.669C109.616 93.916 118.205 83.9742 126.68 75.1805C103.232 72.9385 79.7905 70.7026 56.3426 68.4606C58.3141 74.2129 60.4178 79.8029 62.8942 85.4049C65.3646 90.9949 68.2138 96.6087 71.6459 102.193C75.0781 107.777 79.1112 113.325 83.7635 118.596C88.4219 123.874 93.6813 128.844 99.4396 133.383C104.128 137.073 109.123 140.499 114.418 143.709C111.972 120.273 109.532 96.8434 107.091 73.4075C100.948 79.4302 95.737 85.1043 91.3431 90.1293C86.9553 95.1542 83.3668 99.5361 80.5959 102.89C77.8489 106.244 75.8715 108.552 75.2343 109.358C74.9278 109.773 74.9819 109.802 75.5709 109.49C76.16 109.189 77.308 108.54 79.1353 107.819C80.9385 107.104 83.4631 106.352 86.2821 106.022C89.0952 105.673 92.1366 105.787 94.643 106.256C97.1736 106.713 99.1391 107.47 100.353 108.089C101.579 108.72 102.09 109.195 102.042 109.322C101.934 109.592 99.7462 108.402 96.4282 105.757C93.0802 103.125 88.5541 99.0853 83.0182 93.7959C52.0148 64.1208 -1.30046 111.81 25.1288 145.62C30.5745 152.587 35.5454 158.61 40.5944 164.02C45.6735 169.417 50.7646 174.268 57.2021 178.764C60.4298 180.994 64.0243 183.133 68.1957 184.991C72.3552 186.848 77.1278 188.405 82.3691 189.265C87.5925 190.142 93.2545 190.244 98.6341 189.517C104.026 188.808 109.069 187.299 113.397 185.472C117.742 183.639 121.409 181.523 124.559 179.425C127.708 177.327 130.365 175.235 132.757 173.216C137.512 169.177 141.274 165.414 144.995 161.681C148.692 157.949 152.298 154.228 156.193 150.327C160.076 146.438 164.242 142.369 168.924 138.029C173.853 133.461 177.525 127.69 179.863 121.463C182.208 115.242 183.139 108.492 182.562 101.862C181.991 95.2384 179.918 88.7469 176.539 83.0247C173.167 77.2904 168.557 72.2354 161.597 67.7334C158.826 65.9361 156.602 64.3371 154.751 62.8945C152.472 61.1153 150.717 59.6247 149.07 58.098C147.429 56.5652 145.873 54.9843 144.118 52.9407C142.368 50.903 140.439 48.3908 138.215 45.193C135.997 42.0073 133.502 38.1424 130.653 33.6103C123.903 22.8992 118.818 18.0004 112.717 14.7786C106.629 11.5448 99.7161 9.88589 92.8218 10.0061C85.9274 10.1083 79.0691 11.9955 73.0884 15.4337C67.1017 18.8538 62.0888 23.8608 60.3156 26.8902C51.8404 41.3941 45.4031 56.2046 40.0054 70.7687C34.6078 85.3447 30.2439 99.6925 25.9943 113.517C17.1164 142.357 56.1923 162.589 74.5251 138.618Z" fill="black"/>
</svg>
