<svg width="200" height="200" viewBox="0 0 200 200" fill="none" xmlns="http://www.w3.org/2000/svg">
<path d="M13.7749 139.621C12.9565 130.166 15.3633 122.723 19.1998 117.262C23.0363 111.808 28.3642 108.347 33.3944 107.04C35.9079 106.383 38.334 106.264 40.4431 106.645C42.5619 107.03 44.3508 107.891 45.7548 109.217C47.1522 110.546 48.2197 112.368 48.7729 114.926C49.3196 117.482 49.3099 120.778 48.43 124.874C48.3685 125.149 48.3071 125.427 48.2392 125.708C48.1906 125.915 48.0353 126.417 47.8057 127.025C47.5728 127.639 47.2655 128.38 46.8999 129.176C46.1656 130.771 45.1919 132.586 44.1471 134.096C43.6262 134.85 43.0893 135.529 42.5782 136.057C42.0703 136.59 41.5915 136.966 41.2454 137.15C40.8928 137.344 40.7343 137.338 40.7019 137.334C40.6696 137.318 40.6243 137.357 40.3202 137.095C39.5956 136.429 39.1136 135.649 38.7836 134.627C38.4601 133.608 38.3178 132.349 38.3825 130.9C38.5022 128.005 39.4694 124.418 40.8766 120.804C42.2805 117.184 44.105 113.526 45.8486 110.346C47.5889 107.163 49.2419 104.465 50.3224 102.708C51.4352 100.894 53.1076 98.6616 55.11 96.4975C57.1092 94.3334 59.4415 92.2339 61.8547 90.6294C64.2614 89.0152 66.7393 87.9219 68.9649 87.6081C70.0809 87.4496 71.1323 87.4722 72.1383 87.6921C73.1508 87.9121 74.1278 88.3262 75.1241 89.0217C76.1172 89.7172 76.9291 90.5842 77.6084 91.6355C78.2813 92.6836 78.8151 93.9192 79.1968 95.3038C79.9602 98.0728 80.0929 101.434 79.6626 104.843C79.2389 108.256 78.2651 111.718 76.9421 114.69C75.6255 117.663 73.9401 120.141 72.2968 121.606C72.271 121.629 72.2548 121.642 72.2515 121.645C72.2548 121.645 72.2483 121.649 72.2548 121.645C72.258 121.642 72.2677 121.636 72.2806 121.629C72.3292 121.6 72.4456 121.529 72.6656 121.471C72.8791 121.412 73.209 121.377 73.5616 121.448C73.9142 121.509 74.2572 121.681 74.4804 121.859C74.71 122.04 74.8329 122.208 74.8976 122.312C74.9656 122.418 74.9785 122.467 74.9785 122.467C74.9753 122.467 74.9235 122.276 74.8912 121.985C74.8136 121.393 74.7974 120.4 74.8556 119.235C74.9138 118.064 75.0432 116.709 75.2147 115.289C75.5608 112.442 76.0848 109.34 76.5733 106.813C76.8159 105.552 77.0488 104.433 77.2461 103.562C77.3432 103.132 77.4338 102.76 77.505 102.476C77.5761 102.194 77.6376 101.984 77.6537 101.945C78.5595 99.1856 80.6719 95.4785 83.5477 91.8295C86.417 88.1709 90.0465 84.5382 93.9219 81.7012C97.794 78.8546 101.915 76.8359 105.661 76.2181C107.534 75.9043 109.31 75.927 110.983 76.3119C112.658 76.7001 114.25 77.4441 115.812 78.6928C116.524 79.2718 117.022 80.0288 117.371 81.1577C117.711 82.277 117.847 83.7392 117.734 85.4084C117.52 88.75 116.317 92.8453 114.644 96.5912C112.982 100.337 110.837 103.769 108.993 105.833C108.091 106.865 107.237 107.532 106.829 107.722C106.732 107.771 106.667 107.794 106.648 107.797C106.645 107.8 106.645 107.8 106.645 107.8C106.645 107.8 106.648 107.8 106.654 107.797C106.67 107.794 106.696 107.79 106.732 107.79C106.877 107.771 107.24 107.862 107.418 108.01C106.874 107.609 106.522 107.202 106.26 106.752C105.998 106.299 105.823 105.788 105.736 105.151C105.554 103.886 105.794 102.091 106.548 99.9878C108.026 95.7696 111.458 90.4839 115.618 85.4246C119.778 80.3555 124.656 75.4547 128.975 71.7217C131.132 69.8584 133.154 68.2798 134.84 67.1314C135.681 66.5556 136.441 66.0898 137.068 65.7501C137.693 65.4105 138.201 65.2034 138.447 65.1354C144.243 63.4533 148.75 63.4469 151.913 64.3753C153.502 64.8379 154.77 65.5236 155.782 66.3647C156.795 67.209 157.561 68.2183 158.124 69.4055C159.237 71.7637 159.502 74.9241 158.58 78.5634C157.668 82.1961 155.569 86.2526 152.166 90.2056C151.923 90.4903 151.671 90.8106 151.354 91.2117C151.043 91.6096 150.681 92.0722 150.28 92.5703C149.481 93.5667 148.52 94.7054 147.569 95.6823C146.631 96.6592 145.657 97.4647 145.101 97.7526C144.968 97.827 144.864 97.869 144.816 97.8852C144.803 97.8884 144.793 97.8917 144.79 97.8917C144.784 97.8949 144.787 97.8949 144.784 97.8949C144.787 97.8917 144.806 97.8884 144.845 97.8852C144.913 97.8819 145.059 97.8852 145.224 97.9338C145.389 97.979 145.56 98.0728 145.67 98.1634C145.615 98.1149 145.579 98.0793 145.524 97.9822C145.473 97.8852 145.408 97.7235 145.359 97.468C145.259 96.9665 145.259 96.1061 145.453 95.045C145.822 92.91 146.915 90.0375 148.329 87.1876C149.739 84.3312 151.457 81.4683 153.026 79.1586C153.809 78.0038 154.556 76.9848 155.19 76.189C155.821 75.3932 156.371 74.8012 156.613 74.5942C160.748 70.9226 164.429 68.6647 167.525 67.5099C170.633 66.3518 173.102 66.2709 175.107 66.8047C177.11 67.3481 178.779 68.5223 180.221 70.3921C181.655 72.2554 182.79 74.8207 183.473 77.8776C184.851 83.985 184.369 91.9816 181.638 99.7744C178.918 107.577 174.004 115.159 166.69 120.746C165.422 121.716 165.179 123.531 166.15 124.799C167.117 126.067 168.932 126.31 170.2 125.339C178.536 118.97 184.052 110.407 187.099 101.677C190.136 92.9359 190.754 84.0109 189.114 76.616C188.283 72.9185 186.879 69.5834 184.812 66.8758C182.751 64.178 179.956 62.1109 176.602 61.2213C173.25 60.3188 169.466 60.6067 165.5 62.0979C161.521 63.5892 157.303 66.2612 152.777 70.2724C152.094 70.8838 151.435 71.6375 150.674 72.5853C149.921 73.5299 149.099 74.6557 148.245 75.914C146.537 78.4307 144.706 81.4844 143.15 84.632C141.597 87.786 140.316 91.0014 139.766 94.0325C139.501 95.5561 139.411 97.0474 139.686 98.5419C139.828 99.2891 140.07 100.036 140.455 100.745C140.84 101.453 141.374 102.116 142.037 102.65C142.493 103.022 143.046 103.313 143.609 103.475C144.175 103.64 144.745 103.682 145.259 103.643C146.294 103.562 147.122 103.219 147.86 102.822C149.322 102.013 150.542 100.894 151.706 99.7065C152.861 98.5193 153.916 97.2544 154.776 96.1869C155.203 95.6531 155.582 95.1679 155.892 94.7765C156.196 94.3916 156.442 94.081 156.539 93.9678C160.444 89.4261 162.996 84.6255 164.17 79.9738C165.341 75.335 165.141 70.7868 163.336 66.947C162.433 65.0352 161.129 63.3207 159.467 61.9394C157.804 60.5549 155.795 59.5068 153.521 58.8469C148.957 57.5303 143.38 57.7212 136.845 59.6136C136.001 59.8627 135.199 60.2282 134.335 60.694C133.478 61.1566 132.569 61.7259 131.602 62.3858C129.67 63.7024 127.506 65.4008 125.219 67.3805C120.648 71.34 115.589 76.4251 111.186 81.7917C106.79 87.1746 103.047 92.7871 101.158 98.0793C100.223 100.735 99.7349 103.352 100.075 105.924C100.249 107.202 100.65 108.463 101.32 109.615C101.983 110.763 102.912 111.785 104.037 112.61C104.862 113.235 105.956 113.535 106.903 113.493C107.861 113.461 108.679 113.176 109.404 112.811C110.847 112.067 112.05 110.967 113.26 109.615C115.644 106.91 117.967 103.113 119.843 98.901C121.706 94.6892 123.107 90.1054 123.398 85.7804C123.537 83.6162 123.398 81.5007 122.796 79.508C122.198 77.5283 121.082 75.6487 119.354 74.2739C117.161 72.5142 114.738 71.3658 112.247 70.7965C109.753 70.2271 107.211 70.2271 104.723 70.6477C99.7382 71.5017 94.9538 73.9667 90.5932 77.1627C86.2358 80.3685 82.3023 84.3311 79.1353 88.3715C75.9749 92.4215 73.5778 96.5072 72.3486 100.188C72.258 100.467 72.1836 100.748 72.093 101.104C72.0025 101.457 71.9054 101.867 71.8019 102.336C71.5884 103.278 71.3458 104.449 71.0967 105.762C70.592 108.392 70.0551 111.595 69.6928 114.622C69.5116 116.136 69.3758 117.608 69.3111 118.964C69.2464 120.319 69.2464 121.545 69.3855 122.667C69.4566 123.234 69.5569 123.774 69.7639 124.353C69.8707 124.644 70.0065 124.945 70.2038 125.265C70.4044 125.582 70.6761 125.922 71.0676 126.229C71.4558 126.536 71.9766 126.792 72.5233 126.892C73.0732 126.999 73.6166 126.954 74.0598 126.834C74.9559 126.588 75.509 126.158 76.0104 125.718C78.4592 123.492 80.4357 120.426 81.9885 116.929C83.5347 113.429 84.6313 109.495 85.123 105.519C85.605 101.544 85.4886 97.5229 84.4729 93.8481C83.965 92.0107 83.2242 90.2574 82.1987 88.6723C81.1733 87.0872 79.8567 85.6704 78.2457 84.5479C76.6833 83.4577 74.9979 82.7363 73.2867 82.3708C71.5787 82.002 69.8545 81.9891 68.1853 82.2317C64.8372 82.7299 61.7091 84.2179 58.8462 86.133C55.9834 88.0545 53.3794 90.4256 51.1505 92.8486C48.9217 95.2715 47.0746 97.7396 45.7483 99.907C44.6678 101.68 42.9663 104.475 41.1613 107.79C39.3595 111.109 37.4476 114.956 35.9337 118.892C34.4231 122.839 33.2844 126.863 33.1226 130.68C33.045 132.589 33.2164 134.459 33.7858 136.228C34.3486 137.994 35.3418 139.657 36.7975 140.97C37.7679 141.866 39.036 142.471 40.3299 142.552C41.6238 142.643 42.8046 142.261 43.775 141.718C44.7552 141.171 45.5833 140.459 46.3467 139.663C47.1069 138.864 47.796 137.978 48.4332 137.046C49.7078 135.186 50.7817 133.145 51.6099 131.337C52.0239 130.431 52.3733 129.584 52.6483 128.843C52.9265 128.092 53.1335 127.468 53.2694 126.895C53.3438 126.578 53.4149 126.261 53.4796 125.948C54.4598 121.302 54.5051 117.268 53.7384 113.836C52.975 110.411 51.3575 107.59 49.1417 105.568C46.929 103.536 44.1729 102.323 41.2518 101.858C38.3275 101.389 35.222 101.644 32.1554 102.518C26.0189 104.271 19.9697 108.508 15.7256 114.894C11.4814 121.276 9.10704 129.81 10.3136 139.98C10.5401 141.889 13.9399 141.536 13.7749 139.621Z" fill="black"/>
</svg>
