<svg width="200" height="200" viewBox="0 0 200 200" fill="none" xmlns="http://www.w3.org/2000/svg">
<path d="M93.7789 11.1303C67.0053 67.0067 36.0539 124.185 17.2046 184.015C16.5746 185.996 17.4449 188.275 19.1939 189.312C20.9014 190.414 23.3219 190.182 24.8719 188.69C43.9616 170.33 64.0459 153.014 84.5116 136.071C96.7545 125.934 109.138 115.937 121.531 105.941C141.383 89.9261 161.475 74.1768 181.709 58.6017C183.118 57.5075 183.732 55.6757 183.301 54.0593C182.911 52.4263 181.493 51.1085 179.802 50.8349C136.426 43.8804 92.9334 37.0916 49.2004 32.1016C47.5674 31.9192 46.1003 33.1045 45.9013 34.7209C45.6941 36.3372 46.8213 37.8459 48.4542 38.0697C91.8971 44.0212 135.108 51.7549 178.352 59.4223C177.722 56.8278 177.084 54.2417 176.454 51.6555C155.914 66.9323 135.556 82.4658 115.496 98.3974C103.013 108.311 90.5462 118.291 78.2369 128.487C57.6469 145.529 37.4878 163.185 18.3981 182.059C20.9512 183.617 23.5125 185.175 26.0655 186.734C43.7295 127.815 72.9898 69.9826 98.346 13.244C99.4733 10.7076 94.9808 8.62698 93.7789 11.1303Z" fill="black"/>
</svg>
