<svg width="200" height="200" viewBox="0 0 200 200" fill="none" xmlns="http://www.w3.org/2000/svg">
<path d="M51.0984 40.61C40.7712 72.4973 36.7147 102.944 34.4631 136.014C34.2493 139.071 39.7274 139.492 39.9915 136.442C42.8029 103.617 47.3312 73.8307 57.9477 42.8869C58.5955 41.0063 57.5578 38.956 55.6647 38.3271C53.7779 37.6981 51.7148 38.7106 51.0984 40.61Z" fill="black"/>
<path d="M82.4323 13.2825C68.4007 42.4528 56.2746 73.0633 46.8216 104.441C40.2366 126.316 35.8968 148.794 33.0415 171.197C32.2616 177.323 42.7273 179.147 44.067 173.115C48.8721 151.524 55.086 130.171 61.5075 108.863C70.7214 78.2835 82.3191 48.2893 95.8099 19.6536C99.3005 12.251 85.9795 5.90504 82.4323 13.2825Z" fill="black"/>
<path d="M108.092 71.5793C105.607 65.7364 103.123 59.8873 100.626 54.0445C100.274 53.2268 99.3934 52.6482 98.4751 52.6419C97.5632 52.6168 96.6575 53.1638 96.2235 54.0947C88.0787 71.4283 80.821 89.001 74.4498 106.888C68.6132 123.285 64.1475 140.134 59.877 157.109C59.5122 158.562 61.9402 159.329 62.4748 157.927C68.6761 141.574 75.0345 125.442 80.827 109.158C87.1542 91.3909 93.5507 73.6673 100.645 56.0193C99.1797 56.0319 97.7143 56.0508 96.2425 56.0633C99.0728 61.7553 101.909 67.4408 104.746 73.1264C105.651 74.9503 108.89 73.4598 108.092 71.5793Z" fill="black"/>
<path d="M147.885 35.0938C147.885 28.4396 147.885 21.7917 147.885 15.1375C147.885 13.4268 144.791 13.4268 144.791 15.1375C144.791 21.7917 144.791 28.4396 144.791 35.0938C144.791 36.8045 147.885 36.8045 147.885 35.0938Z" fill="black"/>
<path d="M141.868 77.4973C141.057 71.1702 140.251 64.8492 139.409 58.5346C139.277 57.5598 138.264 56.6415 137.132 56.6163C136 56.5472 134.912 57.3711 134.616 58.7045C130.446 77.4154 126.365 95.5666 122.805 113.68C118.012 138.102 113.465 162.429 106.968 187.442C106.358 189.813 110.314 191.084 111.195 188.801C120.541 164.517 127.918 140.391 132.786 115.642C136.396 97.2837 138.239 78.5665 139.434 59.3901C137.843 59.4467 136.245 59.5033 134.648 59.5599C136.465 65.6606 138.314 71.7612 140.17 77.8557C140.446 78.7802 141.987 78.447 141.868 77.4973Z" fill="black"/>
<path d="M133.095 32.6477C124.183 50.9184 115.831 69.2645 109.239 88.2396C100.623 113.039 94.7236 138.693 91.0192 165.096C90.6921 167.429 94.6483 168.191 95.208 165.901C101.529 140.222 109.806 115.819 118.296 91.3906C124.793 72.6985 131.246 53.8556 138.297 34.8804C139.391 31.9496 134.466 29.8363 133.095 32.6477Z" fill="black"/>
<path d="M155.709 91.793C149.967 108.215 144.218 124.63 138.476 141.051C136.463 146.8 146.854 150.454 148.879 144.706C154.665 128.303 160.451 111.9 166.244 95.4974C167.269 92.5854 165.735 89.4029 162.829 88.3777C159.917 87.3589 156.728 88.8873 155.709 91.793Z" fill="black"/>
</svg>
