<svg width="200" height="200" viewBox="0 0 200 200" fill="none" xmlns="http://www.w3.org/2000/svg">
<path d="M34.25 34.9267C34.056 38.3596 33.4249 42.9502 32.529 48.3258C31.633 53.7045 30.4753 59.8745 29.2407 66.5124C26.7684 79.7884 23.982 94.9209 22.3656 109.416C21.559 116.667 21.0388 123.76 21.0018 130.414C20.9679 137.067 21.4052 143.28 22.5782 148.84C23.1663 151.621 23.9452 154.241 24.9735 156.673C26.0049 159.102 27.2949 161.353 28.9328 163.333C30.5677 165.309 32.5721 167.009 34.9059 168.24C37.2366 169.472 39.8781 170.217 42.6645 170.435C42.7076 170.439 42.6922 170.438 42.7969 170.445C44.5087 170.531 45.9927 170.094 47.1073 169.589C48.2341 169.075 49.0684 168.49 49.7211 168.006C51.904 166.374 53.5574 164.518 54.9613 162.818C55.4478 162.23 55.9219 161.639 56.3838 161.042C60.063 156.31 63.1449 151.319 66.0298 146.418C75.3433 130.58 83.3789 114.154 91.1315 97.7658C102.175 74.419 112.529 50.7734 122.468 26.9832C118.499 25.921 114.531 24.859 110.562 23.7968C107.726 44.7575 105.254 65.7674 103.17 86.8236C101.433 104.351 99.9247 121.962 99.0934 139.669C98.4099 154.207 97.9296 169.059 99.3397 184.056C99.4536 185.291 99.8969 186.381 100.565 187.298C101.233 188.216 102.141 188.955 103.176 189.42C104.207 189.888 105.362 190.078 106.492 189.971C107.622 189.866 108.73 189.478 109.74 188.742C111.855 187.203 113.693 185.322 115.387 183.197C117.077 181.07 118.626 178.687 120.094 176.073C123.028 170.848 125.67 164.681 128.213 157.785C133.287 143.998 137.939 127.264 142.767 109.955C147.588 92.6549 152.573 74.7914 158.161 58.9908C160.95 51.0905 163.89 43.7136 167 37.208C170.107 30.7055 173.389 25.0775 176.769 20.6963C172.834 18.9537 168.9 17.2142 164.965 15.4716C163.416 24.1046 162.071 32.202 160.892 40.0253C158.13 58.3259 156.267 75.1239 154.86 93.7478C153.466 112.378 152.483 132.831 151.711 158.563C151.652 160.565 151.594 162.597 151.538 164.663C151.461 166.729 151.594 168.837 151.902 170.99C152.502 175.294 153.792 179.77 155.156 184.407C155.532 185.685 157.068 185.759 157.567 184.521C159.365 180.038 161.076 175.706 162.092 171.479C162.6 169.367 162.939 167.283 163.059 165.223C163.204 163.163 163.343 161.134 163.481 159.142C165.224 133.483 166.437 113.16 167.976 94.7884C169.503 76.417 171.317 59.9915 174.029 42.008C175.19 34.3202 176.514 26.3459 178.044 17.8175C178.321 16.2689 178.041 14.7542 177.345 13.4765C176.652 12.1957 175.525 11.1549 174.192 10.5699C172.862 9.97573 171.335 9.84027 169.922 10.1913C168.506 10.5361 167.197 11.3458 166.24 12.5897C162.074 18.0054 158.401 24.394 155.011 31.4815C151.627 38.5659 148.536 46.3554 145.636 54.5666C139.842 70.9799 134.811 89.0865 129.999 106.402C125.193 123.705 120.599 140.229 115.827 153.231C113.45 159.727 111.024 165.34 108.616 169.635C107.415 171.781 106.221 173.597 105.091 175.023C103.964 176.451 102.899 177.48 102.012 178.123C105.479 179.687 108.946 181.248 112.412 182.809C111.07 168.908 111.458 154.669 112.092 140.257C112.853 122.88 114.272 105.481 115.913 88.0551C117.884 67.1406 120.214 46.263 122.887 25.4193C123.09 23.8276 122.686 22.3065 121.849 21.0935C121.018 19.8742 119.737 18.9721 118.311 18.5996C116.886 18.2178 115.328 18.3718 114.001 19.0214C112.674 19.6618 111.572 20.7887 110.981 22.2327C101.261 45.9674 91.1777 69.5296 80.4665 92.7872C72.9264 109.167 65.223 125.364 56.3929 140.829C53.6589 145.62 50.8727 150.232 47.723 154.398C47.3259 154.924 46.9256 155.445 46.5162 155.956C45.3677 157.4 44.2809 158.591 43.2217 159.41C42.8892 159.675 42.6521 159.813 42.6336 159.826C42.6336 159.826 42.6336 159.826 42.6398 159.826C42.646 159.826 42.6522 159.823 42.6676 159.82C42.6922 159.81 42.7353 159.801 42.7907 159.789C42.9047 159.764 43.0863 159.746 43.2925 159.758C43.3357 159.761 43.3819 159.764 43.425 159.764C41.9379 159.681 40.7772 159.361 39.7427 158.859C38.7082 158.351 37.7722 157.64 36.8578 156.612C35.9496 155.586 35.0782 154.241 34.2993 152.56C33.5173 150.885 32.8276 148.884 32.2581 146.614C31.1096 142.076 30.4446 136.476 30.189 130.254C29.9304 124.031 30.0721 117.187 30.4692 110.096C31.2574 95.9092 33.0554 80.7367 34.6348 67.3315C35.4261 60.6288 36.165 54.3665 36.6946 48.8708C37.221 43.3751 37.5474 38.6582 37.5012 34.9944C37.4766 33.1994 34.3516 33.1348 34.25 34.9267Z" fill="black"/>
</svg>
