<svg width="200" height="200" viewBox="0 0 200 200" fill="none" xmlns="http://www.w3.org/2000/svg">
<path d="M88.5237 46.971C84.8693 41.8139 80.8557 38.5991 76.4913 37.2656C72.1306 35.914 67.5903 36.5959 63.3818 38.6661C59.1533 40.7362 55.1494 44.1398 51.3537 48.4323C47.5605 52.7187 43.9791 57.9123 40.6791 63.6356C34.0832 75.0823 28.6156 88.6357 25.1152 101.373C23.3666 107.742 22.1099 113.904 21.47 119.548C20.8398 125.204 20.7899 130.319 21.6496 134.806C23.8391 146.216 29.3986 156.275 37.0119 164.458C44.63 172.659 54.2817 179.04 64.8486 183.381C75.4197 187.722 86.9224 190.042 98.3575 190C109.785 189.957 121.182 187.552 131.371 182.261C142.662 176.404 151.957 167.721 159.182 157.51C166.413 147.3 171.616 135.549 174.849 123.292C180.571 101.477 180.292 78.0292 173.376 58.1193C169.902 48.1765 164.72 39.1044 157.632 31.7919C150.564 24.4795 141.529 18.9936 130.93 16.4181C122.434 14.3419 112.954 14.08 102.811 16.1745C92.664 18.2386 81.8664 22.5554 70.5226 29.3382C59.4193 35.9809 49.4467 43.5309 39.4388 51.2878C38.1675 52.2681 39.5715 54.4783 41.0018 53.7416C52.2512 47.9634 63.3094 42.4654 74.7713 37.8502C86.3214 33.2046 96.3604 30.6168 105.023 29.5818C113.691 28.571 120.995 29.0095 127.287 30.7021C135.11 32.8271 141.402 36.8151 146.625 42.3314C151.828 47.8478 155.903 54.9715 158.711 63.1912C164.357 79.6062 164.743 100.326 159.715 119.304C156.909 129.972 152.467 140.079 146.537 148.658C140.6 157.249 133.216 164.305 124.394 169.14C116.7 173.353 107.62 175.612 98.114 175.929C88.6163 176.251 78.7295 174.626 69.5929 171.259C60.452 167.892 52.0764 162.789 45.4861 156.275C38.8908 149.748 34.0595 141.857 31.814 132.62C31.0931 129.752 30.8337 125.454 31.1619 120.418C31.4803 115.377 32.3492 109.581 33.6899 103.498C36.3677 91.3207 40.9305 77.9988 46.5844 66.8322C49.409 61.2489 52.5057 56.2014 55.7424 52.1037C58.9755 48.006 62.3516 44.8704 65.6486 43.0256C68.9657 41.1868 72.0965 40.5779 75.3491 41.3573C78.5974 42.1427 82.1385 44.4625 85.7759 49.029C86.9583 50.5146 89.6209 48.5175 88.5237 46.971Z" fill="black"/>
<path d="M103.887 11.7662C95.6916 35.4937 89.8855 66.1562 87.1742 97.117C84.4739 128.09 84.8532 159.306 89.2535 184.337C89.7509 187.168 92.5054 189.019 95.3318 188.489C98.1582 187.96 100.052 185.238 99.4885 182.413C94.7753 158.819 93.6562 128.2 95.6442 97.7623C97.6205 67.319 102.689 37.0037 110.125 13.8424C111.235 10.3841 105.072 8.33216 103.887 11.7662Z" fill="black"/>
</svg>
