<svg width="200" height="200" viewBox="0 0 200 200" fill="none" xmlns="http://www.w3.org/2000/svg">
<path d="M89.2928 11.6066C81.9972 19.5024 77.1499 29.7105 73.7525 40.8837C70.369 52.0689 68.4566 64.2798 67.4121 76.3996C66.6304 85.4486 67.0444 94.4733 67.9541 102.873C68.8675 111.278 70.2512 119.071 71.51 125.796C71.8802 127.78 74.9493 127.653 75.155 125.644C75.8511 118.871 76.7797 111.102 77.7574 102.909C78.7321 94.71 79.7305 86.1041 80.4648 77.5225C81.4504 66.0156 83.2414 54.6057 86.2219 44.6343C89.1897 34.6507 93.3694 26.1783 98.7533 20.3399C103.571 15.1084 94.1189 6.38721 89.2928 11.6066Z" fill="black"/>
<path d="M108.06 21.6691C91.0444 62.9507 86.2219 107.722 82.4585 151.152C82.3644 152.238 84.2676 152.457 84.42 151.377C90.4939 108.232 97.8611 64.0735 116.392 25.3772C117.48 23.1013 116.381 20.3824 114.08 19.3567C111.779 18.3371 109.019 19.3446 108.06 21.6691Z" fill="black"/>
<path d="M126.316 36.2164C113.432 59.7461 105.858 85.0419 100.448 110.872C95.0425 136.702 91.8052 163.084 87.7117 188.853C87.5144 190.097 89.7248 190.479 89.9584 189.241C94.8143 163.557 98.8289 137.29 104.933 111.879C111.033 86.4682 119.226 61.9249 132.318 39.6151C133.282 37.9765 132.676 35.8523 131.019 34.9177C129.361 33.977 127.231 34.5414 126.316 36.2164Z" fill="black"/>
</svg>
