<svg width="200" height="200" viewBox="0 0 200 200" fill="none" xmlns="http://www.w3.org/2000/svg">
<path d="M93.6898 48.6974C89.391 49.2255 85.908 50.5117 83.1866 52.3733C80.4651 54.2316 78.5222 56.6721 77.3172 59.3936C74.9038 64.8567 75.3743 71.3219 77.676 76.9712C78.8336 79.7976 80.455 82.431 82.4656 84.6548C84.4762 86.8753 86.8794 88.6896 89.611 89.81C92.3325 90.9304 95.4025 91.3298 98.5539 90.7002C101.705 90.074 104.89 88.4391 107.933 85.7041C111.45 82.546 113.837 78.7347 115.201 74.7677C116.561 70.8006 116.917 66.6812 116.419 62.8259C115.918 58.9705 114.574 55.3656 112.452 52.4208C110.34 49.4861 107.395 47.1945 103.814 46.2366C100.93 45.4446 97.6636 45.6104 94.4412 46.8967C91.2121 48.1761 88.0134 50.5185 84.9738 53.9981C82.6145 56.7161 80.5227 59.4849 78.1736 62.0845C77.6456 62.6701 78.4782 63.6077 79.1213 63.1508C82.0425 61.0725 84.7504 58.7674 87.4786 56.618C90.8059 54.0049 93.7169 52.5189 96.1641 51.8047C97.3928 51.4459 98.5065 51.2767 99.5321 51.2462C100.558 51.2225 101.502 51.3241 102.389 51.561C104.569 52.1432 106.485 53.5412 108.028 55.6364C109.565 57.7249 110.672 60.4936 111.108 63.5468C111.552 66.5999 111.332 69.9273 110.303 73.1395C109.274 76.3518 107.449 79.4489 104.636 82.1264C102.179 84.4552 99.8164 85.6973 97.596 86.2186C95.3755 86.7331 93.2498 86.5436 91.185 85.7887C89.127 85.0339 87.1469 83.6833 85.407 81.8995C83.6672 80.1191 82.1711 77.9122 81.0744 75.5055C78.8675 70.6855 78.2785 65.1173 80.0793 60.5579C80.9796 58.2698 82.4622 56.205 84.7131 54.5092C86.9641 52.8168 90.0003 51.5001 93.9978 50.8231C94.5766 50.725 94.9591 50.18 94.8779 49.6079C94.7933 49.0393 94.2686 48.6263 93.6898 48.6974Z" fill="black"/>
<path d="M98.5095 31.3329C91.6856 31.3397 85.6098 33.0829 80.3396 36.1563C75.0693 39.2298 70.6081 43.62 66.9524 48.8733C59.6377 59.3833 55.5014 73.3323 54.3302 87.4404C53.1726 101.555 54.97 115.833 59.7392 127.118C62.1323 132.76 65.2769 137.665 69.2643 141.385C73.2381 145.098 78.1089 147.596 83.677 148.25C83.7346 148.256 83.7921 148.263 83.8531 148.27C91.1068 149.079 98.2726 148.067 105.073 145.677C111.88 143.284 118.328 139.52 124.251 134.812C136.095 125.385 145.854 112.184 152.116 98.2043C158.361 84.2248 161.16 69.4532 158.659 56.7126C157.403 50.3525 154.776 44.4898 150.535 39.68C146.304 34.8667 140.485 31.1637 133.113 28.9906C129.119 27.789 124.63 27.1221 119.695 27.0883C117.708 27.0713 116.253 27.2135 115.048 27.4843C113.85 27.7517 112.932 28.1714 112.228 28.5404C111.514 28.9127 111.006 29.2173 110.221 29.5321C109.439 29.8435 108.353 30.1651 106.616 30.4426C106.288 30.5002 105.689 30.5679 104.985 30.6322C104.281 30.6965 103.465 30.7609 102.646 30.8252C101.004 30.9504 99.3591 31.0655 98.5061 31.1433C98.5095 31.2076 98.5095 31.272 98.5095 31.3329ZM98.5366 33.3096C99.332 33.3638 100.984 33.5161 102.636 33.6549C103.462 33.7226 104.291 33.7869 105.029 33.8343C105.767 33.8817 106.4 33.9121 106.89 33.9054C108.837 33.8918 110.262 33.7057 111.406 33.4281C112.55 33.1573 113.389 32.7951 114.029 32.565C114.679 32.328 115.119 32.2028 115.867 32.1249C116.615 32.0504 117.698 32.0471 119.428 32.2265C123.987 32.6868 127.975 33.4417 131.498 34.4605C137.984 36.3797 142.767 39.4904 146.26 43.4473C149.746 47.4076 151.97 52.2683 153.074 57.8195C155.297 68.9015 152.86 82.705 146.977 95.9128C141.111 109.127 131.857 121.726 120.863 130.581C115.37 135.011 109.449 138.511 103.313 140.732C97.1725 142.952 90.8225 143.903 84.3811 143.267C84.3337 143.264 84.2863 143.257 84.2389 143.253C79.798 142.773 75.9426 140.901 72.5307 137.827C69.1255 134.754 66.2145 130.459 63.9263 125.303C59.3297 114.997 57.2616 101.315 58.0773 87.7078C58.8829 74.0973 62.5555 60.5578 69.2372 50.4201C72.5747 45.3496 76.6568 41.1219 81.5141 38.1128C86.3748 35.107 92.0139 33.3029 98.5366 33.1167C98.5366 33.181 98.5366 33.2453 98.5366 33.3096Z" fill="black"/>
<path d="M49.8472 45.8879C48.2664 47.9967 47.0682 50.2645 45.8937 52.6034C45.3453 53.7103 44.7665 54.8239 44.2452 55.9917C43.7172 57.1595 43.2196 58.3679 42.7356 59.6136C41.7709 62.1116 40.8671 64.7619 39.9397 67.5578C38.0848 73.1462 36.1249 79.3067 33.3798 85.9038C26.4747 102.507 17.8602 119.086 13.2331 133.847C10.928 141.236 9.59773 148.195 10.1088 154.6C10.3661 157.798 11.1006 160.862 12.441 163.698C13.7747 166.535 15.7176 169.131 18.2901 171.372C22.7919 175.301 29.142 178.141 37.6414 179.908C46.1543 181.675 56.8708 182.376 70.3154 181.888C87.6561 181.242 106.29 174.34 123.614 163.81C140.937 153.266 156.954 139.063 168.94 123.56C177.264 112.786 183.658 101.393 187.134 90.0807C190.607 78.7854 191.152 67.4867 187.503 57.2103C185.685 52.0822 182.818 47.2419 178.848 42.8686C174.877 38.492 169.81 34.5824 163.589 31.2246C151.139 24.5125 134.1 19.97 111.516 18.2404C104.316 17.6852 96.7377 18.0169 88.8781 20.0275C82.5721 21.6285 76.0968 24.3466 69.564 28.5439C63.0278 32.7411 56.4375 38.4005 49.7896 45.8371C49.81 45.854 49.8269 45.871 49.8472 45.8879ZM52.88 48.7312C59.6531 41.8463 66.1555 36.7792 72.3701 33.0728C78.5881 29.3697 84.5251 27.0105 90.2726 25.5923C97.4384 23.8389 104.333 23.5918 111.039 24.1605C133.047 26.0323 149.254 30.5714 160.576 36.7725C166.243 39.8696 170.69 43.373 174.102 47.1606C177.511 50.9517 179.89 55.0305 181.414 59.3631C184.45 68.008 184.074 77.8139 180.882 88.1547C177.697 98.4819 171.689 109.256 163.734 119.536C152.294 134.341 136.855 148.128 120.273 158.35C103.694 168.583 85.9671 175.217 70.0683 175.958C56.952 176.578 46.6451 176.002 38.7381 174.462C30.8209 172.929 25.3577 170.441 21.7189 167.377C19.6339 165.621 18.1174 163.668 17.0241 161.481C15.9342 159.294 15.2708 156.857 14.9831 154.149C14.4009 148.737 15.3859 142.245 17.41 135.089C21.4448 120.765 29.5346 103.894 36.1723 87.031C38.843 80.2443 40.7317 73.9823 42.5257 68.4007C43.4227 65.6115 44.2926 62.995 45.2201 60.5714C45.6838 59.3596 46.161 58.1953 46.662 57.0817C47.1697 55.9714 47.6707 54.8984 48.2698 53.9134C49.5391 51.8216 51.1063 50.0919 52.8225 48.677C52.8428 48.6973 52.8631 48.7142 52.88 48.7312Z" fill="black"/>
</svg>
