<svg width="200" height="200" viewBox="0 0 200 200" fill="none" xmlns="http://www.w3.org/2000/svg">
<path d="M10 105.314C16.8441 101.268 22.8126 98.7168 27.8498 97.3796C32.8931 96.0333 36.9446 95.9031 40.2054 96.4214C43.4844 96.9495 46.0211 98.0615 48.5032 99.5058C50.9792 100.961 53.4314 102.811 56.163 105.079C61.6261 109.575 68.0926 115.908 76.7861 122.46C81.1419 125.715 86.0761 129 91.7521 131.908C97.422 134.816 103.858 137.353 111.025 138.965C115.417 139.95 120.083 140.601 124.938 140.735C129.787 140.838 134.818 140.309 139.849 139.086C149.923 136.665 159.846 131.439 168.874 123.744C173.637 119.99 177.482 115.853 180.457 111.637C183.438 107.421 185.555 103.134 187.015 99.0003C188.475 94.8616 189.284 90.8725 189.686 87.1244C190.069 83.372 190.099 79.8612 189.789 76.5931C189.138 69.693 187.082 63.9039 184.685 60C185.008 64.5475 184.119 70.1755 181.82 75.5169C180.725 78.0355 179.35 80.4957 177.555 82.6718C175.779 84.8528 173.643 86.7496 171.264 88.2286C168.88 89.7124 166.258 90.7752 163.459 91.4121C160.661 92.0521 157.692 92.2724 154.48 92.1574C145.531 92.652 139.016 92.0053 133.905 91.4791C131.332 91.2071 129.081 90.951 126.921 90.7764C124.768 90.6292 122.693 90.4509 120.594 90.1613C117.187 89.6996 113.683 88.9939 109.887 87.9925C106.103 86.996 102.051 85.6997 97.7442 84.211C89.1238 81.2732 79.5544 77.4417 69.0419 75.077C63.7857 73.9169 58.2557 73.1656 52.6162 73.3456C46.9828 73.5148 41.2518 74.6773 35.9712 77.0798C30.6724 79.473 25.8663 83.0423 21.6016 87.7176C17.3188 92.402 13.5285 98.1948 10 105.314Z" fill="black"/>
</svg>
