<svg width="200" height="200" viewBox="0 0 200 200" fill="none" xmlns="http://www.w3.org/2000/svg">
<path d="M15.5111 135.268C15.5832 133.479 16.0634 130.594 16.8798 127.088C17.6962 123.57 18.8407 119.392 20.2094 114.838C22.9428 105.725 26.5686 95.0955 30.2585 84.9944C33.9484 74.8932 37.7064 65.3085 40.6919 58.3169C42.1807 54.8231 43.4852 51.9696 44.4497 50.1006C44.9219 49.1722 45.3263 48.4758 45.5344 48.1836C45.6265 48.0436 45.6864 47.9995 45.5303 48.1756C45.4423 48.2637 45.3021 48.4158 44.958 48.6399C44.7819 48.748 44.5539 48.8761 44.2258 48.9962C43.9016 49.1122 43.4694 49.2202 42.9411 49.2242C42.4929 49.2282 42.0766 49.1402 41.7684 49.0241C41.4563 48.908 41.2442 48.7759 41.1001 48.6759C40.9601 48.5758 40.884 48.5038 40.852 48.4678C40.8159 48.4357 40.82 48.4398 40.84 48.4719C40.9481 48.6199 41.3081 49.2603 41.6883 50.1888C42.4687 52.0617 43.4133 55.0833 44.3938 58.7492C46.3628 66.1049 48.5199 76.1139 50.673 86.1831C52.8301 96.2642 54.9792 106.405 57.0002 114.241C58.0167 118.171 58.9851 121.505 59.9896 124.138C60.5059 125.463 61.0062 126.608 61.6985 127.724C62.0547 128.288 62.4549 128.853 63.0912 129.465C63.4114 129.769 63.7997 130.089 64.3039 130.39C64.8082 130.686 65.4484 130.966 66.2168 131.114C67.0773 131.286 67.9698 131.27 68.7502 131.118C69.5386 130.97 70.2109 130.702 70.7592 130.409C71.8597 129.813 72.5161 129.165 72.9924 128.677C77.6347 123.838 80.9164 118.107 83.5137 112.108C86.107 106.101 88.032 99.7939 89.8849 93.6148C91.7339 87.4396 93.5069 81.3886 95.66 75.9378C97.813 70.483 100.342 65.6566 103.564 61.7867C100.214 60.9822 96.8605 60.1778 93.5108 59.3774C93.5828 59.7216 93.6988 60.3939 93.8149 61.2544C93.9349 62.1148 94.0631 63.1793 94.2032 64.3919C94.4753 66.8171 94.7794 69.8468 95.1235 73.2405C95.8119 80.028 96.6643 88.2641 97.8089 96.2722C98.3812 100.278 99.0297 104.232 99.7701 107.946C100.514 111.66 101.351 115.126 102.343 118.223C103.352 121.325 104.452 124.034 106.105 126.448C106.946 127.644 107.954 128.805 109.391 129.785C110.107 130.27 110.94 130.698 111.876 130.99C112.805 131.282 113.833 131.426 114.85 131.386C114.894 131.386 114.934 131.382 114.978 131.382C116.026 131.326 117.019 131.09 117.903 130.758C118.792 130.418 119.572 129.985 120.272 129.509C121.677 128.553 122.782 127.432 123.798 126.215C125.811 123.782 127.504 120.889 129.205 117.599C132.571 111.048 135.848 102.899 139.202 95.0995C140.875 91.2055 142.556 87.4117 144.237 84.006C145.909 80.6042 147.586 77.5907 149.167 75.3096C149.955 74.173 150.712 73.2204 151.396 72.496C152.077 71.7676 152.677 71.2794 153.105 71.0113C153.537 70.7351 153.757 70.6832 153.834 70.6552C153.918 70.6432 153.905 70.6031 154.154 70.6752C153.785 70.5151 153.649 70.383 153.633 70.367C153.633 70.363 153.633 70.3629 153.637 70.3629C153.637 70.3629 153.641 70.3669 153.645 70.3709C153.657 70.3789 153.678 70.391 153.698 70.411C153.746 70.455 153.809 70.5191 153.894 70.6072C154.226 70.9673 154.762 71.6997 155.362 72.6922C156.575 74.6852 158.052 77.7107 159.616 81.3486C162.002 86.8914 164.619 93.883 167.336 101.347C170.054 108.819 172.855 116.779 175.513 124.359C178.174 131.938 180.683 139.134 182.804 145.097C184.929 151.06 186.654 155.778 187.787 158.44C188.287 159.612 190.308 158.896 189.96 157.671C189.204 155.01 188.091 150.128 186.726 143.969C185.362 137.805 183.741 130.353 181.916 122.497C180.099 114.645 178.074 106.389 175.921 98.6093C173.772 90.8254 171.474 83.5297 169.209 77.4947C167.709 73.5126 166.24 70.0908 164.699 67.3094C163.923 65.9167 163.138 64.6761 162.206 63.5475C161.734 62.9832 161.225 62.443 160.609 61.9268C159.997 61.4105 159.276 60.9102 158.34 60.518C156.539 59.7456 154.506 59.4335 152.593 59.6416C150.668 59.8417 148.915 60.5139 147.394 61.3984C145.87 62.2908 144.545 63.3954 143.316 64.624C142.091 65.8607 140.967 67.2295 139.886 68.7142C137.737 71.6797 135.772 75.1054 133.875 78.7953C131.986 82.4852 130.177 86.4351 128.424 90.4051C124.927 98.3292 121.633 106.365 118.636 112.148C117.155 115.026 115.722 117.331 114.65 118.6C114.129 119.232 113.705 119.588 113.585 119.66C113.569 119.672 113.561 119.676 113.557 119.68C113.561 119.676 113.557 119.68 113.565 119.676C113.577 119.668 113.617 119.648 113.685 119.624C113.813 119.572 114.057 119.504 114.357 119.492C114.369 119.492 114.381 119.488 114.393 119.488C114.741 119.472 115.122 119.528 115.418 119.624C115.718 119.716 115.934 119.84 116.046 119.916C116.102 119.952 116.138 119.98 116.15 119.992C116.158 120 116.158 120 116.158 120C116.158 120 116.15 119.992 116.138 119.984C116.098 119.94 116.002 119.828 115.87 119.64C115.33 118.9 114.445 117.039 113.665 114.578C112.052 109.615 110.632 102.259 109.495 94.5674C108.346 86.8635 107.446 78.7752 106.697 72.0118C106.321 68.6301 105.985 65.5766 105.673 63.0353C105.517 61.7627 105.365 60.6181 105.213 59.6096C105.061 58.5931 104.913 57.7246 104.733 56.9082C104.476 55.7636 103.924 54.815 103.172 54.0706C102.423 53.3222 101.467 52.79 100.438 52.5499C99.4098 52.3058 98.3133 52.3579 97.3127 52.69C96.3082 53.0222 95.3877 53.6265 94.6794 54.499C90.4212 59.7496 87.4918 65.7286 85.1546 71.8758C82.8254 78.0309 81.0845 84.3941 79.3436 90.5533C77.6108 96.7084 75.8777 102.664 73.6966 107.966C71.5195 113.277 68.9063 117.903 65.4965 121.597C65.4885 121.605 65.4844 121.613 65.4844 121.613C65.4804 121.617 65.4845 121.617 65.4805 121.617C65.4845 121.617 65.5006 121.605 65.5286 121.581C65.5846 121.537 65.6966 121.453 65.9007 121.341C66.1048 121.237 66.4129 121.105 66.8171 121.029C67.2133 120.953 67.7056 120.945 68.1418 121.037C68.7301 121.149 69.1824 121.357 69.4986 121.545C69.8147 121.733 70.0108 121.901 70.1348 122.025C70.2629 122.145 70.319 122.221 70.3471 122.253C70.3511 122.261 70.355 122.27 70.359 122.274C70.355 122.27 70.343 122.257 70.331 122.237C70.199 122.061 69.8388 121.377 69.4466 120.409C68.6462 118.46 67.6576 115.37 66.617 111.652C64.52 104.196 62.1428 94.1552 59.7456 84.1301C57.3443 74.093 54.919 64.0638 52.6619 56.4199C51.5253 52.5859 50.4488 49.3682 49.3403 46.875C48.776 45.6183 48.2277 44.5498 47.4633 43.5293C47.0711 43.0211 46.623 42.5049 45.9266 42.0006C45.5784 41.7485 45.1622 41.5043 44.6459 41.3122C44.1376 41.1241 43.5254 40.9961 42.877 41.0001C42.3047 41.0081 41.8285 41.124 41.4523 41.2561C41.0761 41.3922 40.7919 41.5483 40.5598 41.6963C40.1036 41.9885 39.8394 42.2487 39.6193 42.4768C39.1911 42.9291 38.9389 43.3013 38.6788 43.7015C38.1745 44.4899 37.7104 45.3863 37.1741 46.4949C36.1216 48.696 34.8529 51.6935 33.4161 55.3273C30.5507 62.591 27.0329 72.36 23.5951 82.6653C20.1614 92.9705 16.8117 103.8 14.2984 113.161C13.0418 117.839 11.9933 122.149 11.2449 125.867C10.4965 129.593 10.0403 132.687 10.0003 135.12C9.95229 138.165 15.3871 138.306 15.5111 135.268Z" fill="black"/>
</svg>
