<svg width="200" height="200" viewBox="0 0 200 200" fill="none" xmlns="http://www.w3.org/2000/svg">
<path fill-rule="evenodd" clip-rule="evenodd" d="M107.522 70.029C110.327 69.7413 112.896 71.6224 113.468 74.384L116.881 90.8482C117.03 90.7619 117.183 90.6823 117.341 90.6096C119.036 89.8284 121.013 89.9607 122.589 90.9608L122.739 91.0562L123.865 86.6914C124.444 84.4488 126.365 82.809 128.671 82.59C130.976 82.3709 133.172 83.6197 134.162 85.7132L134.698 86.8454C135.632 86.0713 136.817 85.6107 138.081 85.5814C140.279 85.5306 142.296 86.7936 143.21 88.7932L147.051 97.194L154.772 78.6619C155.667 76.5147 157.816 75.1625 160.139 75.285C162.462 75.4075 164.457 76.9781 165.121 79.2075L169.098 92.5647L170.328 90.9785C171.196 89.8586 172.449 89.1326 173.812 88.9159V83.0397C173.812 80.4699 175.592 78.2425 178.098 77.6754C180.605 77.1082 183.17 78.3523 184.276 80.6718L194.465 102.031C195.773 104.773 194.61 108.056 191.868 109.363C189.127 110.671 185.844 109.509 184.536 106.767L184.402 106.485C183.733 108.116 182.298 109.375 180.492 109.771C177.969 110.325 175.4 109.049 174.318 106.703L173.474 104.875L171.231 107.769C169.968 109.398 167.899 110.185 165.873 109.805C163.846 109.426 162.201 107.945 161.613 105.969L158.986 97.1488L152.361 113.049C151.52 115.067 149.564 116.395 147.378 116.432C145.192 116.469 143.191 115.208 142.282 113.22L138.106 104.084C137.201 104.791 136.078 105.213 134.882 105.248C133.144 105.3 131.512 104.528 130.448 103.216C129.86 103.94 129.09 104.513 128.198 104.865C126.797 105.419 125.242 105.371 123.891 104.753L122.07 117.491C121.692 120.136 119.468 122.127 116.797 122.21C114.127 122.294 111.783 120.446 111.24 117.829L110.425 113.899C110.118 114.043 109.793 114.161 109.455 114.248C107.025 114.874 104.479 113.776 103.267 111.579L95.4135 97.3452L84.8152 112.127C83.7384 113.629 81.9793 114.49 80.1327 114.418C78.2861 114.347 76.5988 113.353 75.6413 111.772L72.4707 106.539L71.0458 115.56C70.6732 117.919 68.8211 119.768 66.4617 120.136C64.1023 120.504 61.7747 119.308 60.7007 117.175L49.8948 95.7157L44.0767 120.243C43.4763 122.774 41.185 124.538 38.5847 124.472C35.9843 124.405 33.7861 122.526 33.3158 119.968L31.1694 108.292L27.6615 120.044C26.927 122.505 24.5871 124.13 22.0246 123.958C19.4621 123.787 17.3592 121.865 16.9586 119.329L16.2205 114.654L14.9575 124.686C14.5781 127.7 11.8274 129.835 8.81362 129.456C5.79985 129.077 3.66426 126.326 4.04366 123.312L10.1491 74.8134C10.4912 72.0957 12.7809 70.044 15.5197 70.001C18.2585 69.958 20.6114 71.9369 21.0387 74.6425L24.0471 93.6945L27.1724 83.2244C27.8996 80.7883 30.2017 79.168 32.7403 79.3056C35.2789 79.4432 37.3923 81.3027 37.852 83.8032L39.4078 92.2663L42.6727 78.5024C43.2061 76.2538 45.0882 74.5785 47.3834 74.3092C49.6785 74.04 51.8973 75.2342 52.9366 77.2982L62.8448 96.9751L63.9511 89.9706C64.3113 87.69 66.0577 85.8771 68.3233 85.4319C70.589 84.9867 72.8914 86.004 74.0878 87.9788L80.7314 98.9448L91.5505 83.8551C92.6503 82.3212 94.46 81.4583 96.3442 81.5695C98.2285 81.6806 99.9241 82.7503 100.836 84.4029L102.583 87.5688V75.5003C102.583 72.68 104.716 70.3167 107.522 70.029Z" fill="black"/>
</svg>
