<svg width="200" height="200" viewBox="0 0 200 200" fill="none" xmlns="http://www.w3.org/2000/svg">
<path d="M65.7726 76.5089C59.6646 89.3611 53.5609 102.218 47.4528 115.07C47.2724 115.444 47.9311 115.774 48.1251 115.404C54.7429 102.809 61.3606 90.2092 67.9784 77.6142C68.2987 77.0098 68.0371 76.2608 67.4281 75.9541C66.8191 75.6518 66.0658 75.8909 65.7726 76.5089Z" fill="black"/>
<path d="M87.1825 94.0621C80.6099 104.537 74.0416 115.012 67.4689 125.491C67.2163 125.897 67.902 126.371 68.1907 125.983C75.6205 116.099 83.0503 106.215 90.4756 96.3267C91.1387 95.447 90.8725 94.1748 89.9612 93.5478C89.05 92.9207 87.769 93.1283 87.1825 94.0621Z" fill="black"/>
<path d="M98.7173 102.051C94.6934 110.374 90.6651 118.701 86.6367 127.024C85.9735 128.4 88.4094 129.623 89.1132 128.265C93.3536 120.046 97.5986 111.827 101.844 103.612C102.286 102.755 101.925 101.699 101.063 101.266C100.202 100.838 99.1414 101.18 98.7173 102.051Z" fill="black"/>
<path d="M130.721 87.814C128.23 95.149 125.736 102.484 123.241 109.819C122.546 111.872 126.227 113.153 126.954 111.109C129.552 103.81 132.146 96.5114 134.744 89.2125C135.137 88.1072 134.546 86.8891 133.432 86.5012C132.322 86.1177 131.099 86.6997 130.721 87.814Z" fill="black"/>
<path d="M122.787 74.1455C127.42 80.7046 132.053 87.2682 136.691 93.8274C137.313 94.7115 138.892 93.656 138.319 92.7447C134.043 85.942 129.771 79.1438 125.494 72.341C125.016 71.5832 123.987 71.3937 123.239 71.8899C122.494 72.3906 122.273 73.4102 122.787 74.1455Z" fill="black"/>
<path d="M104.502 65.5473C108.887 72.3952 113.276 79.2475 117.665 86.0953C118.184 86.9118 119.632 86.0549 119.172 85.2068C115.288 78.0567 111.404 70.9111 107.52 63.761C107.055 62.9084 105.95 62.6512 105.12 63.1429C104.285 63.6346 103.979 64.7308 104.502 65.5473Z" fill="black"/>
<path d="M83.8455 72.2414C90.5265 80.8305 97.2118 89.4151 103.897 98.0042C104.89 99.2854 107.208 97.4809 106.216 96.1998C99.5351 87.6106 92.8587 79.0172 86.1777 70.4235C85.677 69.7784 84.7476 69.6655 84.1026 70.1662C83.4575 70.667 83.3448 71.5963 83.8455 72.2414Z" fill="black"/>
<path d="M70.4047 81.9631C75.0015 86.9299 79.5982 91.8965 84.195 96.8632C85.007 97.7429 86.5905 96.358 85.8281 95.4332C81.5155 90.2184 77.2028 85.0081 72.8902 79.7933C72.3083 79.0895 71.2481 79.0354 70.5624 79.6353C69.8767 80.2353 69.7866 81.2955 70.4047 81.9631Z" fill="black"/>
<path d="M47.107 91.9685C49.1866 94.1564 51.334 96.2767 53.54 98.3248C55.2136 99.8766 56.9187 101.428 58.7683 102.795C59.9547 103.666 61.2224 104.654 62.7787 104.974C62.8599 104.988 62.9366 105.01 63.0133 105.028C63.0223 105.028 63.0267 105.028 63.0358 105.033C63.8342 105.195 64.565 105.863 65.2462 106.526C65.9318 107.184 66.5816 107.843 67.335 108.01C69.2838 108.439 71.264 108.971 73.2805 109.508C77.9314 110.748 82.5869 112.12 87.2739 113.505C93.1068 115.228 98.9443 116.987 104.759 118.85C105.143 118.977 105.535 118.683 105.666 118.345C105.801 118.007 105.715 117.524 105.354 117.348C99.8238 114.723 94.2391 112.183 88.5687 109.842C84.026 107.965 79.4112 106.183 74.6565 104.712C72.649 104.094 70.5829 103.485 68.4356 103.012C67.6011 102.827 66.6492 103.174 65.729 103.571C64.7997 103.973 63.9111 104.428 63.0855 104.446C63.0946 104.446 63.0989 104.446 63.1034 104.451C63.0312 104.446 62.9637 104.437 62.8915 104.424C61.5066 104.144 60.3156 103.201 59.1608 102.281C57.4015 100.878 55.8181 99.254 54.2708 97.5939C52.2408 95.406 50.319 93.1234 48.474 90.7821C48.1627 90.3896 47.5717 90.367 47.1973 90.6918C46.8184 91.0211 46.7597 91.6076 47.107 91.9685Z" fill="black"/>
<path d="M96.5668 109.345C108.715 112.981 120.859 116.617 133.008 120.258C134.144 120.596 135.29 119.784 135.628 118.715C135.967 117.641 135.493 116.319 134.37 115.945C122.334 111.948 110.303 107.951 98.2721 103.95C96.7879 103.458 95.1954 104.306 94.7218 105.795C94.2526 107.284 95.0736 108.894 96.5668 109.345Z" fill="black"/>
<path d="M108.497 83.0638C112.075 87.7779 115.652 92.4921 119.229 97.2062C119.347 97.3595 119.622 97.1564 119.509 97.0031C116.089 92.1717 112.665 87.3402 109.246 82.5133C109.097 82.3013 108.804 82.2608 108.597 82.4142C108.389 82.5631 108.344 82.8563 108.497 83.0638Z" fill="black"/>
<path d="M145.143 54.1519C133.923 65.2086 122.704 76.2609 111.49 87.3131C111.35 87.4484 111.35 87.6694 111.49 87.8047C111.625 87.9446 111.846 87.9446 111.986 87.8047C123.038 76.5901 134.09 65.371 145.143 54.1519Z" fill="black"/>
<path d="M96.669 58.2259C88.1611 67.5323 79.6531 76.8343 71.1451 86.1362C70.6309 86.6956 71.6278 87.6247 72.1511 87.0743C80.826 77.9258 89.4964 68.7774 98.1712 59.6244C98.5592 59.2139 98.5321 58.5643 98.117 58.1764C97.702 57.7884 97.0479 57.8109 96.669 58.2259Z" fill="black"/>
<path d="M82.2119 53.4981C77.0106 60.9639 71.8048 68.4343 66.6035 75.9047C66.3869 76.2114 66.9193 76.6084 67.1539 76.3106C72.7657 69.1425 78.3774 61.9788 83.9937 54.8106C84.3681 54.3325 84.2508 53.6289 83.7591 53.2635C83.2674 52.9026 82.5638 52.9973 82.2119 53.4981Z" fill="black"/>
<path d="M63.3636 53.7191C59.042 60.4902 54.725 67.2614 50.4078 74.0371C50.2364 74.3078 50.7101 74.6235 50.8951 74.3574C55.4829 67.7712 60.0752 61.1805 64.663 54.5898C64.9111 54.2334 64.8073 53.7416 64.4465 53.5025C64.0901 53.2634 63.5937 53.3537 63.3636 53.7191Z" fill="black"/>
<path d="M37.8864 68.4476C37.6879 73.2248 37.4895 78.0064 37.291 82.7882C37.7286 78.0244 38.1662 73.2607 38.6038 68.4925C38.6219 68.2985 38.4684 68.1272 38.2699 68.1136C38.0714 68.1001 37.8954 68.2491 37.8864 68.4476Z" fill="black"/>
<path d="M48.1625 105.655C47.8422 110.428 47.5264 115.201 47.2061 119.969C47.1655 120.614 48.3294 120.691 48.37 120.05C48.6903 115.277 49.0106 110.505 49.3264 105.732C49.349 105.412 49.1052 105.132 48.7804 105.109C48.4601 105.087 48.1806 105.331 48.1625 105.655Z" fill="black"/>
<path d="M128.852 116.604C126.646 121.557 124.44 126.51 122.234 131.463C125.117 126.871 128.004 122.279 130.887 117.691C131.23 117.149 130.977 116.428 130.413 116.126C129.849 115.828 129.109 116.022 128.852 116.604Z" fill="black"/>
<path d="M140.093 96.0693C138.596 101.505 137.093 106.936 135.596 112.372C137.278 106.991 138.961 101.613 140.644 96.2317C140.689 96.0783 140.599 95.9204 140.45 95.8753C140.296 95.8302 140.134 95.916 140.093 96.0693Z" fill="black"/>
<path d="M133.467 71.335C133.467 75.1514 133.467 78.9677 133.467 82.7886C133.467 83.0277 133.909 83.0277 133.909 82.7886C133.909 78.9677 133.909 75.1514 133.909 71.335C133.909 71.0914 133.467 71.0914 133.467 71.335Z" fill="black"/>
<path d="M122.751 59.7277C120.983 65.1861 119.21 70.6401 117.442 76.0985C117.437 76.1211 117.469 76.13 117.478 76.1119C119.526 70.7527 121.574 65.3935 123.622 60.0343C123.712 59.7952 123.581 59.529 123.342 59.4433C123.099 59.3576 122.828 59.4841 122.751 59.7277Z" fill="black"/>
<path d="M111.858 95.9609C111.56 97.9188 111.253 99.8721 110.861 101.807C110.333 104.41 109.828 107.022 108.727 109.427C108.727 109.431 108.723 109.436 108.723 109.44C108.723 109.44 108.727 109.436 108.727 109.431C108.407 109.972 107.428 110.148 107.126 110.699C101.415 120.98 95.9381 131.391 90.4571 141.803C90.2902 142.119 90.8361 142.421 91.0166 142.119C97.0479 132.014 103.079 121.909 108.79 111.624C109.093 111.073 108.727 110.148 109.016 109.589C109.02 109.584 109.02 109.58 109.02 109.58C109.025 109.575 109.025 109.566 109.029 109.562C110.139 107.13 110.87 104.546 111.709 102.033C112.336 100.143 112.931 98.239 113.518 96.3398C113.658 95.8887 113.338 95.4242 112.877 95.3204C112.422 95.2167 111.93 95.4963 111.858 95.9609Z" fill="black"/>
<path d="M40.2805 112.278C39.5993 120.583 38.9228 128.888 38.2461 137.188C39.4731 128.951 40.7045 120.709 41.936 112.472C42.0037 112.016 41.6609 111.601 41.2008 111.547C40.7452 111.493 40.3166 111.822 40.2805 112.278Z" fill="black"/>
<path d="M22.0613 90.2993C21.2403 97.3141 20.4194 104.333 19.6029 111.348C19.5352 111.912 20.5321 112.052 20.6223 111.488C21.7095 104.509 22.8013 97.526 23.8885 90.5473C23.9651 90.0421 23.6043 89.5775 23.099 89.5099C22.5938 89.4377 22.12 89.7896 22.0613 90.2993Z" fill="black"/>
<path d="M138.748 105.272C135.103 111.425 131.454 117.578 127.809 123.731C127.705 123.903 128.003 124.088 128.111 123.925C132.099 117.989 136.091 112.052 140.079 106.111C140.318 105.754 140.201 105.258 139.831 105.028C139.465 104.798 138.969 104.897 138.748 105.272Z" fill="black"/>
<path d="M82.2895 136.52C78.0716 142.123 73.8493 147.721 69.6269 153.32C69.5322 153.45 69.7487 153.626 69.8525 153.509C74.544 148.29 79.2309 143.075 83.918 137.86C84.3059 137.427 84.2203 136.746 83.7737 136.376C83.3226 136.006 82.6414 136.056 82.2895 136.52Z" fill="black"/>
<path d="M45.5764 141.306C50.7641 146.305 55.9473 151.299 61.135 156.292C61.1531 156.311 61.1803 156.279 61.1668 156.261C56.1685 151.077 51.1746 145.89 46.1808 140.706C46.0184 140.535 45.7433 140.54 45.5764 140.706C45.4094 140.873 45.4094 141.144 45.5764 141.306Z" fill="black"/>
<path d="M128.162 109.025C131.559 113.983 134.955 118.94 138.352 123.894C138.429 124.006 138.632 123.88 138.564 123.763C135.601 118.534 132.632 113.31 129.668 108.087C129.425 107.658 128.861 107.545 128.446 107.802C128.026 108.064 127.887 108.623 128.162 109.025Z" fill="black"/>
<path d="M103.131 141.41C102.125 145.944 101.119 150.473 100.117 155.002C99.8377 156.261 101.931 156.861 102.359 155.643C103.898 151.267 105.441 146.887 106.979 142.511C107.349 141.469 106.668 140.341 105.607 140.035C104.543 139.732 103.37 140.332 103.131 141.41Z" fill="black"/>
<path d="M170.196 83.5464C168.45 90.5928 166.704 97.6346 164.959 104.676C164.9 104.925 165.333 105.042 165.405 104.798C167.476 97.8466 169.551 90.8905 171.621 83.9343C171.739 83.5464 171.495 83.1359 171.103 83.0321C170.71 82.9239 170.295 83.154 170.196 83.5464Z" fill="black"/>
<path d="M154.804 67.1258C150.234 77.4021 145.669 87.6784 141.099 97.9547C140.991 98.2028 141.424 98.4057 141.546 98.1621C146.521 88.0753 151.497 77.9931 156.473 67.9062C156.699 67.4506 156.491 66.8957 156.031 66.6791C155.566 66.4626 155.011 66.6567 154.804 67.1258Z" fill="black"/>
<path d="M146.751 49.023C142.934 52.2078 139.113 55.388 135.297 58.5683C134.9 58.8976 135.496 59.615 135.893 59.2857C139.709 56.1009 143.53 52.9205 147.346 49.7401C147.743 49.4108 147.143 48.6936 146.751 49.023Z" fill="black"/>
<path d="M116.163 46.429C120.254 51.9777 124.342 57.5217 128.429 63.0703C128.812 63.5891 129.737 62.9711 129.403 62.4208C125.853 56.5112 122.307 50.6063 118.761 44.7012C118.315 43.9614 117.313 43.79 116.596 44.2682C115.879 44.7464 115.653 45.7343 116.163 46.429Z" fill="black"/>
<path d="M182.724 89.2077C179.742 96.6149 176.755 104.018 173.773 111.42C177.152 104.189 180.531 96.9579 183.91 89.7266C184.063 89.4018 183.905 89.0183 183.576 88.874C183.247 88.7296 182.859 88.8784 182.724 89.2077Z" fill="black"/>
<path d="M145.552 119.64C144.122 121.954 142.768 124.322 141.514 126.731C140.581 128.527 139.656 130.344 138.97 132.257C138.559 133.412 138.068 134.684 138.307 135.952C138.325 136.056 138.329 136.159 138.325 136.272C138.329 136.281 138.329 136.29 138.334 136.295C138.402 136.926 138.221 137.873 138.69 138.379C140.35 140.192 142.642 141.086 144.613 141.839C148.38 143.26 152.3 144 156.175 144.604C161.372 145.412 166.61 145.863 171.842 146.088C172.014 146.097 172.158 145.971 172.172 145.804C172.185 145.633 172.059 145.488 171.888 145.466C166.7 144.911 161.539 144.131 156.451 143.079C152.639 142.29 148.863 141.41 145.335 139.989C143.4 139.218 141.42 138.338 140.215 136.994C139.908 136.642 139.051 136.629 138.582 136.173C138.587 136.182 138.591 136.191 138.591 136.195C138.532 136.11 138.487 136.02 138.469 135.92C138.244 134.716 138.74 133.48 139.196 132.338C139.94 130.471 140.959 128.734 142.024 127.024C143.45 124.733 145.01 122.527 146.634 120.379C146.855 120.091 146.765 119.671 146.467 119.468C146.165 119.261 145.741 119.329 145.552 119.64Z" fill="black"/>
<path d="M183.809 118.056C183.579 121.246 183.353 124.435 183.123 127.624C183.11 127.836 183.48 127.872 183.507 127.665C183.917 124.493 184.324 121.318 184.734 118.147C184.766 117.894 184.572 117.664 184.314 117.637C184.062 117.614 183.827 117.799 183.809 118.056Z" fill="black"/>
<path d="M145.07 107.897C156.222 108.199 167.378 108.506 178.534 108.808C178.669 108.813 178.786 108.709 178.795 108.569C178.804 108.434 178.696 108.317 178.561 108.303C167.445 107.338 156.33 106.368 145.214 105.398C144.524 105.339 143.933 105.885 143.893 106.575C143.852 107.265 144.38 107.874 145.07 107.897Z" fill="black"/>
<path d="M152.509 95.785C159.872 96.7865 167.238 97.788 174.6 98.7895C174.997 98.8436 175.363 98.5684 175.43 98.1804C175.498 97.7925 175.25 97.4091 174.858 97.3234C167.586 95.7806 160.318 94.2379 153.046 92.6951C152.198 92.5146 151.377 93.1189 151.233 93.9715C151.084 94.8241 151.648 95.6677 152.509 95.785Z" fill="black"/>
<path d="M154.471 68.1547C166.312 69.2149 178.154 70.2751 190 71.3352C178.299 69.215 166.601 67.0901 154.899 64.9699C154.029 64.812 153.212 65.4662 153.091 66.3459C152.973 67.2256 153.587 68.0735 154.471 68.1547Z" fill="black"/>
<path d="M135.017 109.21C142.073 115.183 149.128 121.151 156.179 127.124C156.684 127.548 157.451 126.74 157.004 126.258C150.698 119.505 144.387 112.747 138.08 105.994C137.246 105.096 135.784 105.182 134.94 106.07C134.092 106.959 134.079 108.416 135.017 109.21Z" fill="black"/>
<path d="M163.871 83.6232C159.22 98.2979 154.565 112.973 149.914 127.647C154.804 113.049 159.694 98.4558 164.584 83.8578C164.652 83.6593 164.543 83.4474 164.345 83.3842C164.146 83.3211 163.935 83.4293 163.871 83.6232Z" fill="black"/>
<path d="M86.0772 83.5063C83.9525 102.99 84.3315 119.356 77.7544 137.928C77.5288 138.564 78.652 138.993 78.9046 138.361C86.384 119.861 86.7403 103.053 89.668 83.9754C89.8214 82.9875 89.0998 82.0762 88.1118 81.9454C87.1194 81.8146 86.1855 82.5138 86.0772 83.5063Z" fill="black"/>
<path d="M37.5059 112.327C37.5826 123.79 37.6548 135.257 37.7315 146.72C37.736 147.284 38.7194 147.311 38.7555 146.747C39.4683 135.307 40.1809 123.863 40.8937 112.422C40.9478 111.489 40.181 110.708 39.2472 110.681C38.3088 110.654 37.4969 111.394 37.5059 112.327Z" fill="black"/>
<path d="M10.9903 97.1612C25.3943 107.194 38.9907 117.957 54.2157 127.083C54.6578 127.345 55.1449 126.596 54.7254 126.298C40.3034 116.09 27.7128 104.451 13.9585 93.2274C12.9074 92.3658 11.3285 92.6231 10.5075 93.7102C9.6865 94.7974 9.87159 96.3853 10.9903 97.1612Z" fill="black"/>
<path d="M29.5673 142.759C41.9909 143.075 54.4145 143.391 66.8381 143.702C67.2712 143.716 67.6365 143.391 67.6591 142.958C67.6816 142.525 67.3525 142.164 66.9194 142.128C54.5274 141.171 42.1353 140.215 29.7433 139.254C28.7779 139.182 27.9524 139.949 27.9027 140.919C27.8531 141.884 28.5974 142.732 29.5673 142.759Z" fill="black"/>
<path d="M74.0821 54.9412C64.8253 66.9453 55.5639 78.9449 46.3071 90.949C45.8469 91.5445 46.8756 92.3745 47.3628 91.8061C57.1925 80.2621 67.0177 68.7227 76.8474 57.1833C77.4879 56.4345 77.3526 55.2978 76.5857 54.6798C75.8233 54.0617 74.6866 54.1653 74.0821 54.9412Z" fill="black"/>
<path d="M167.053 113.816C169.616 122.64 172.182 131.463 174.745 140.287C175.043 141.316 176.842 140.865 176.621 139.818C174.731 130.827 172.841 121.832 170.951 112.841C170.721 111.754 169.593 111.109 168.515 111.38C167.437 111.651 166.742 112.751 167.053 113.816Z" fill="black"/>
</svg>
