<svg width="200" height="200" viewBox="0 0 200 200" fill="none" xmlns="http://www.w3.org/2000/svg">
<path d="M19.1034 136.21C26.3089 119.244 37.6634 99.8508 50.9091 81.9374C64.1514 64.0241 79.3022 47.5801 94.0001 36.5057C92.7208 35.7865 91.445 35.0708 90.1692 34.3517C88.5891 48.8006 82.1062 63.7059 73.8324 78.6977C65.5655 93.6964 55.5422 108.764 47.0575 123.652C41.7502 132.97 37.0376 142.219 33.746 151.385C33.5213 152.007 33.5351 152.661 33.7391 153.242C33.9431 153.823 34.3442 154.331 34.8663 154.663C35.3849 154.995 36.0142 155.15 36.6262 155.088C37.2416 155.033 37.8397 154.77 38.3134 154.303C55.7462 137.171 68.5978 116.568 81.7363 96.3137C94.8679 76.0492 108.276 56.1409 126.584 40.1499C125 39.1472 123.42 38.1446 121.837 37.1419C116.408 56.1375 105.099 73.2556 93.848 90.9304C82.6249 108.605 71.4571 126.864 66.8586 148.349C66.71 149.044 66.8137 149.739 67.1145 150.327C67.4084 150.922 67.9063 151.409 68.501 151.693C69.0991 151.983 69.7906 152.063 70.4371 151.924C71.0837 151.786 71.6888 151.437 72.1417 150.88C85.1869 134.893 95.6977 117.066 106.475 99.6468C117.248 82.2244 128.285 65.2203 142.243 50.7748C140.528 49.7791 138.813 48.7833 137.098 47.7841C130.836 69.1446 119.026 88.4963 107.101 108.114C95.1929 127.736 83.1677 147.623 76.8612 170.221C76.6745 170.889 76.7229 171.567 76.9546 172.165C77.1862 172.766 77.6115 173.288 78.1508 173.641C78.6902 173.994 79.3402 174.17 79.9833 174.139C80.6264 174.111 81.2626 173.883 81.7985 173.44C100.106 158.418 112.646 137.479 124.727 116.409C136.79 95.3249 148.407 74.0785 164.305 58.1981C162.569 57.2127 160.837 56.2273 159.105 55.2419C155.246 70.4895 147.647 84.6965 139.11 98.8758C130.587 113.055 121.145 127.186 113.812 142.375C109.822 150.642 106.482 159.24 104.317 168.323C104.141 169.067 104.241 169.796 104.556 170.412C104.867 171.034 105.4 171.539 106.036 171.815C106.668 172.099 107.401 172.154 108.069 171.968C108.736 171.788 109.348 171.373 109.759 170.768C122.801 151.686 133.609 130.381 145.731 110.296C157.853 90.2009 171.262 71.3159 189.552 56.9085C188.999 56.4106 188.445 55.9127 187.896 55.4183C183.574 62.8588 179.255 70.2994 174.937 77.7434C174.577 78.3589 175.66 79.0158 176.04 78.4107C180.638 71.1396 185.24 63.8685 189.835 56.5939C190.115 56.1513 190.029 55.5255 189.642 55.1762C189.265 54.8132 188.636 54.7683 188.179 55.1002C169.007 69.0616 154.603 87.9016 141.783 107.834C128.962 127.777 117.701 148.806 104.767 167.317C106.582 168.133 108.397 168.946 110.212 169.762C112.339 161.218 115.547 153.055 119.399 145.072C126.473 130.405 135.794 116.416 144.428 102.074C153.051 87.7288 161 73.0067 165.118 56.7667C165.294 56.0718 165.221 55.3733 164.952 54.7648C164.689 54.1528 164.222 53.6342 163.641 53.3092C163.064 52.9773 162.379 52.8424 161.719 52.9289C161.062 53.0118 160.422 53.3058 159.918 53.8105C143.159 70.6002 131.386 92.3306 119.351 113.328C107.332 134.343 95.0615 154.594 77.8811 168.659C79.5269 169.731 81.1727 170.806 82.8185 171.881C88.8034 150.358 100.459 130.923 112.37 111.312C124.264 91.7014 136.406 71.9106 142.979 49.5094C143.183 48.8145 143.128 48.1056 142.875 47.4867C142.623 46.8644 142.156 46.3319 141.575 45.9965C140.998 45.6612 140.307 45.5194 139.639 45.6093C138.975 45.6958 138.336 46 137.834 46.5186C123.341 61.5484 112.107 78.9536 101.299 96.4486C90.4976 113.951 80.1182 131.553 67.4706 147.073C69.234 147.917 70.9938 148.761 72.7537 149.604C77.0307 129.423 87.6901 111.748 98.8751 94.1182C110.033 76.4884 121.712 58.9276 127.472 38.7496C127.656 38.1065 127.611 37.4531 127.382 36.8791C127.158 36.3017 126.746 35.8004 126.221 35.4719C125.699 35.1365 125.069 34.9775 124.45 35.0224C123.835 35.0639 123.226 35.3025 122.725 35.7416C103.695 52.4345 90.0585 72.8752 76.9303 93.2054C63.8091 113.549 51.1857 133.79 34.4133 150.341C35.9346 151.312 37.4594 152.284 38.9807 153.256C42.0786 144.553 46.6218 135.546 51.8219 126.356C60.1372 111.669 70.1018 96.5212 78.4102 81.2009C86.7082 65.8807 93.3777 50.3703 94.9302 34.8495C95.027 33.8814 94.5187 32.9444 93.7096 32.5088C92.911 32.0524 91.8495 32.1181 91.0957 32.699C75.983 44.3473 60.8322 61.2373 47.6452 79.5586C34.4652 97.88 23.2663 117.622 16.168 134.989C15.5042 136.615 18.4154 137.828 19.1034 136.21Z" fill="black"/>
<path d="M31.9513 119.372C27.0451 117.768 22.1354 116.164 17.2258 114.559C17.0909 115.178 16.9561 115.797 16.8213 116.416C38.5102 119.061 60.0505 131.511 81.6358 145.051C103.228 158.573 124.834 173.178 146.934 179.941C147.567 180.131 148.276 179.896 148.66 179.384C149.061 178.883 149.106 178.136 148.753 177.562C143.518 169.081 134.525 159.943 123.454 150.479C112.383 141.027 99.2276 131.273 85.6914 121.72C72.1587 112.167 58.2422 102.811 45.6673 94.1703C33.0957 85.5335 21.8519 77.602 13.7233 70.9532C13.2496 70.5659 12.6481 70.3964 12.0706 70.4518C11.4932 70.5036 10.94 70.7872 10.5597 71.2263C10.1793 71.662 9.97195 72.2497 10.0031 72.8306C10.0238 73.408 10.2762 73.982 10.736 74.4072C26.6786 89.1743 45.688 104.889 65.7243 119.109C85.7606 133.327 106.817 146.05 126.912 154.825C127.98 155.292 129.273 155.002 130.017 154.158C130.788 153.339 130.954 152.025 130.383 150.995C124.779 140.868 116.819 132.241 107.695 124.417C98.5672 116.596 88.2569 109.56 77.8498 102.634C67.4392 95.7124 56.9249 88.8977 47.3891 81.5781C37.8464 74.2585 29.2925 66.4342 22.7405 57.5519C21.8242 59.1527 20.9046 60.7535 19.9849 62.3578C22.5088 62.6309 25.6379 63.4677 29.1715 64.8126C32.7085 66.1576 36.6535 68.0039 40.889 70.2478C49.3633 74.7357 58.9786 80.8174 68.957 87.6529C88.9276 101.327 110.354 118.013 127.475 131.155C136.579 138.133 144.483 144.08 150.368 148.104C151.028 148.557 151.792 148.716 152.515 148.605C153.237 148.502 153.915 148.125 154.382 147.561C154.852 147.005 155.104 146.268 155.08 145.539C155.059 144.809 154.769 144.086 154.233 143.54C141.036 130.108 126.058 118.131 110.935 106.285C95.8116 94.4435 80.5293 82.7225 66.7269 69.8744C56.7347 60.5771 47.5204 50.6955 39.6581 39.8528C38.6623 41.0629 37.6666 42.2765 36.6743 43.4901C67.2802 58.0393 97.4262 79.3169 126.213 100.657C138.322 109.632 150.15 118.681 161.601 127.342C162.196 127.791 162.901 127.992 163.593 127.957C164.284 127.926 164.962 127.653 165.477 127.19C165.999 126.733 166.352 126.094 166.466 125.412C166.583 124.731 166.469 124.005 166.096 123.362C154.7 103.741 137.986 85.2084 120.025 67.869C102.059 50.5365 82.8251 34.4003 66.3846 19.737C65.8453 19.2564 65.1815 19.0144 64.5142 19.0006C63.8503 18.9868 63.183 19.2115 62.6609 19.623C62.1388 20.0379 61.7654 20.636 61.6271 21.286C61.4853 21.936 61.5718 22.6378 61.9106 23.2637C67.2629 33.1591 75.0043 41.9273 84.0456 49.9695C93.0905 58.0116 103.446 65.3347 114.112 72.2946C135.442 86.2008 158.05 98.717 173.789 112.167C175.981 114.037 179.373 110.082 177.184 108.201C160.865 94.1738 138.194 81.547 117.137 67.6789C106.613 60.7535 96.4996 53.5307 87.8178 45.7479C79.129 37.965 71.8821 29.629 67.0036 20.5219C65.5099 21.6974 64.0197 22.873 62.5261 24.0485C79.015 38.8501 98.1281 54.9898 115.855 72.1805C133.578 89.3609 149.897 107.599 160.799 126.436C162.296 125.108 163.797 123.784 165.297 122.456C153.874 113.799 142.035 104.73 129.878 95.7193C100.967 74.2793 70.0289 53.4823 38.728 39.0922C37.708 38.6219 36.4703 38.9228 35.8134 39.763C35.1288 40.5789 35.0942 41.8513 35.7442 42.7295C43.9869 53.7831 53.4916 63.7719 63.6256 73.204C77.6285 86.2319 92.8485 98.2191 107.75 110.286C122.649 122.349 137.219 134.481 149.922 147.727C151.211 146.206 152.497 144.685 153.787 143.163C148.144 139.208 140.334 133.206 131.265 126.221C114.171 113.083 92.6548 96.352 72.4422 82.5565C62.3325 75.6553 52.5477 69.4871 43.7449 64.8472C39.34 62.5272 35.1806 60.5875 31.322 59.1284C27.4635 57.6763 23.9057 56.6944 20.6349 56.3417C19.4317 56.2138 18.2492 56.8361 17.6856 57.8457C17.0979 58.8449 17.16 60.1795 17.8792 61.1476C24.9498 70.6696 33.9601 78.8086 43.7795 86.2941C53.6023 93.7796 64.248 100.612 74.6482 107.468C85.0483 114.321 95.1996 121.198 104.037 128.704C112.878 136.207 120.391 144.325 125.612 153.65C126.77 152.371 127.925 151.095 129.083 149.816C109.427 141.362 88.5508 128.932 68.632 114.985C48.7098 101.033 29.735 85.5646 13.8305 71.0465C12.8347 72.1979 11.839 73.3492 10.8432 74.5006C19.2346 81.26 30.5891 89.1396 43.2574 97.7039C55.9257 106.265 69.8941 115.5 83.4579 124.911C97.0182 134.322 110.174 143.91 121.186 153.159C132.198 162.397 141.067 171.321 146.035 179.253C146.644 178.461 147.249 177.669 147.854 176.877C126.369 170.529 104.728 156.253 82.9807 142.88C61.226 129.517 39.3296 117.052 17.046 114.521C16.5585 114.466 16.0882 114.805 16.0018 115.268C15.8912 115.728 16.1816 116.229 16.6415 116.378C21.565 117.937 26.4884 119.497 31.4085 121.059C31.8545 121.198 32.3074 120.883 32.4423 120.461C32.5771 120.039 32.3939 119.517 31.9513 119.372Z" fill="black"/>
</svg>
